SplineFontDB: 3.2
FontName: Consolig-Regular
FullName: Consolig Regular
FamilyName: Consolig
Weight: Regular
Copyright: (c) 2019 Schism Studios
Version: 1.0
ItalicAngle: 0
UnderlinePosition: -266
UnderlineWidth: 144
Ascent: 1521
Descent: 527
InvalidEm: 0
UFOAscent: 1521
UFODescent: -527
LayerCount: 2
Layer: 0 0 "Back" 1
Layer: 1 0 "public.default" 0 "glyphs"
StyleMap: 0x0040
FSType: 8
OS2Version: 0
OS2_WeightWidthSlopeOnly: 0
OS2_UseTypoMetrics: 0
CreationTime: 1575066624
ModificationTime: 1575682755
PfmFamily: 16
TTFWeight: 400
TTFWidth: 5
LineGap: 350
VLineGap: 0
Panose: 2 11 6 9 2 2 4 3 2 4
OS2TypoAscent: 1521
OS2TypoAOffset: 0
OS2TypoDescent: -527
OS2TypoDOffset: 0
OS2TypoLinegap: 350
OS2WinAscent: 1884
OS2WinAOffset: 0
OS2WinDescent: 514
OS2WinDOffset: 0
HheadAscent: 1521
HheadAOffset: 0
HheadDescent: -527
HheadDOffset: 0
OS2SubXSize: 1434
OS2SubYSize: 1331
OS2SubXOff: 0
OS2SubYOff: 287
OS2SupXSize: 1434
OS2SupYSize: 1331
OS2SupXOff: 0
OS2SupYOff: 977
OS2StrikeYSize: 102
OS2StrikeYPos: 512
OS2CapHeight: 1307
OS2XHeight: 1004
OS2Vendor: 'SS  '
OS2CodePages: 6000019f.dfd70000
OS2UnicodeRanges: e00006ff.0000fcff.00000001.00000000
DEI: 91125
LangName: 1033 "+AKkA 2019 Schism Studios" "" "" "Schism: Consolig" "" "Version 1.00" "" "Consolig is not trademarked. It is a not-so-clever combination of two other words, one of which is a trademark of Microsoft." "Schism Studios" "Josh Jones" "" "http://www.schism.co" "http://josh-jones.com" "SIL OPEN FONT LICENSE (OFL-1.1)" "https://opensource.org/licenses/OFL-1.1"
PickledDataWithLists: "(dp0
Vpublic.glyphOrder
p1
(lp2
Vhyphen_hyphen_greater.liga
p3
aVLIG
p4
as."
Encoding: Custom
UnicodeInterp: none
NameList: AGL For New Fonts
DisplaySize: -128
AntiAlias: 1
FitToEm: 0
WinInfo: 160 8 2
BeginChars: 174 174

StartChar: ampersand_ampersand.liga
Encoding: 0 -1 0
GlifName: ampersand_ampersand.liga
Width: 1126
Flags: HW
HStem: -14 149<-656.528 -340.206 187.789 503.794> 1237 147<-589.023 -357.102 254.977 486.898>
VStem: -928 181<223.141 525.923> -815 180<917.255 1190.56> -315 176<952.248 1196.2> 29 180<917.255 1190.56> 529 176<953.753 1196.2> 707 176<400.715 682>
LayerCount: 2
Fore
SplineSet
373 1237 m 0xcf
 269 1237 209 1170 209 1067 c 0
 209 975 245 925 293 864 c 2
 320 829 l 1
 397 872 475 916 512 996 c 0
 523 1020 529 1047 529 1077 c 0
 529 1175 470 1237 373 1237 c 0xcf
-471 1237 m 0
 -575 1237 -635 1170 -635 1067 c 0xdf
 -635 975 -599 925 -551 864 c 2
 -524 829 l 1
 -447 872 -369 916 -332 996 c 0
 -321 1020 -315 1047 -315 1077 c 0
 -315 1175 -374 1237 -471 1237 c 0
-747 373 m 0xef
 -747 224 -652 135 -502 135 c 0
 -415 135 -339 167 -274 231 c 1
 -210 306 l 1
 -572 641 l 1
 -592 629 l 1
 -672 575 -747 505 -747 373 c 0xef
666 109 m 1
 580 36 468 -14 318 -14 c 0
 183 -14 94 29 21 90 c 0
 -15 120 -68 174 -68 174 c 1
 -92 197 l 1
 -123 163 -153 133 -178 109 c 0
 -264 36 -376 -14 -526 -14 c 0
 -718 -14 -848 67 -902 204 c 0
 -920 249 -928 298 -928 352 c 0xef
 -928 560 -811 662 -682 741 c 1
 -704 772 l 1
 -764 846 -815 935 -815 1051 c 0xdf
 -815 1212 -733 1314 -614 1359 c 0
 -570 1376 -521 1384 -465 1384 c 0
 -309 1384 -203 1317 -160 1206 c 0
 -146 1171 -139 1133 -139 1094 c 0
 -139 887 -289 804 -422 727 c 1
 -102 439 l 1
 -102 439 -24 540 33 601 c 0
 82 654 171 730 171 730 c 1
 140 772 l 1
 80 846 29 935 29 1051 c 0
 29 1212 111 1314 230 1359 c 0
 274 1376 323 1384 379 1384 c 0
 535 1384 641 1317 684 1206 c 0
 698 1171 705 1133 705 1094 c 0
 705 880 545 797 408 719 c 1
 666 397 l 1
 693.183946065 471.05281859 707.187744859 559.164460936 707.187744859 661.334927037 c 0
 707.187744859 668.160539352 707.125245099 675.048897007 707 682 c 1
 883 682 l 1
 883 506 847 365 783 252 c 1
 985 0 l 1
 754 0 l 1
 666 109 l 1
18 330 m 1
 162 200 l 1
 202 160 263 135 342 135 c 0
 429 135 505 167 570 231 c 1
 273 606 l 1
 273 606 180 533 135 482 c 0
 84 424 18 330 18 330 c 1
EndSplineSet
PickledDataWithLists: "(dp0
Vcom.schriftgestaltung.Glyphs.lastChange
p1
V2019/11/18 23:07:02
p2
s."
EndChar

StartChar: asciicircum_equal.liga
Encoding: 1 -1 1
GlifName: asciicircum_equal.liga
Width: 1126
Flags: W
HStem: 298 147<-136 852> 646 147<-46 852>
LayerCount: 2
Fore
SplineSet
852 298 m 1
 -136 298 l 1
 -136 445 l 1
 852 445 l 1
 852 298 l 1
-46 793 m 1
 852 793 l 1
 852 646 l 1
 -136 646 l 1
 -434 1169 l 1
 -706 668 l 1
 -864 668 l 1
 -498 1307 l 1
 -356 1307 l 1
 -46 793 l 1
EndSplineSet
PickledDataWithLists: "(dp0
Vcom.schriftgestaltung.Glyphs.lastChange
p1
V2019/11/18 23:05:38
p2
s."
EndChar

StartChar: asciitilde_asciitilde.liga
Encoding: 2 -1 2
GlifName: asciitilde_asciitilde.liga
Width: 1126
Flags: W
HStem: 344 158<-306.612 -119.284 543.727 735.369> 596 158<-731.158 -544.73 116.474 305.743>
VStem: -918 158<401 569.126> 760 158<528.056 696>
LayerCount: 2
Fore
SplineSet
644 502 m 0
 746 502 760 581 760 696 c 1
 918 696 l 1
 918 531 861 421 761 370 c 0
 726 352 685 344 638 344 c 0
 452 344 390 505 269 578 c 0
 249 590 234 596 212 596 c 0
 163 596 125 561 94 531 c 0
 30 470 -30 397 -116 362 c 0
 -145 350 -174 344 -210 344 c 0
 -362 344 -438 451 -522 531 c 0
 -555 562 -590 596 -644 596 c 0
 -741 596 -760 512 -760 401 c 1
 -918 401 l 1
 -918 565 -861 678 -762 728 c 0
 -727 746 -685 754 -638 754 c 0
 -452 754 -391 593 -270 520 c 0
 -250 508 -235 502 -213 502 c 0
 -165 502 -128 538 -97 567 c 0
 -15 646 62 754 212 754 c 0
 398 754 459 593 580 520 c 0
 600 508 622 502 644 502 c 0
EndSplineSet
PickledDataWithLists: "(dp0
Vcom.schriftgestaltung.Glyphs.lastChange
p1
V2019/11/18 23:05:38
p2
s."
EndChar

StartChar: asciitilde_at.liga
Encoding: 3 -1 3
GlifName: asciitilde_at.liga
Width: 1126
Flags: W
HStem: 63 130<311.421 423.107 634.734 754.185> 344 158<-388.599 -239.725> 596 158<-732.308 -590.231> 795 129<387.799 535.782> 1303 122<329.607 653.748>
VStem: -919 160<401 571.939> 140 159<195.784 658.595> 830 141<314.851 1069.62>
LayerCount: 2
Fore
SplineSet
299 373 m 2
 299 350 l 2
 299 272 301 193 357 193 c 0
 399 193 417 228 436 258 c 0
 447 275 458 298 471 326 c 1
 537 764 l 1
 523 783 498 795 463 795 c 0
 414 795 386 754 367 718 c 0
 322 631 299 501 299 373 c 2
628 297 m 0
 628 243 636 193 690 193 c 0
 745 193 770 259 787 314 c 0
 819 416 830 544 830 692 c 0
 830 939 798 1166 653 1262 c 0
 611 1290 570 1303 502 1303 c 0
 380 1303 284 1241 217 1172 c 0
 176 1130 135 1091 101 1022 c 0
 14 844 -13 708 -65 544 c 0
 -105 418 -169 344 -314 344 c 0
 -381 344 -427 372 -466 409 c 0
 -505 445 -537 481 -568 521 c 0
 -593 554 -613 596 -660 596 c 0
 -741 596 -759 510 -759 401 c 1
 -919 401 l 1
 -919 602 -847 754 -679 754 c 0
 -536 754 -474 645 -406 567 c 0
 -379 536 -356 502 -309 502 c 0
 -275 502 -256 519 -238 548 c 0
 -226 565 -208 590 -198 624 c 0
 -166 742 -116 941 -18 1110 c 0
 61 1245 159 1327 305 1386 c 0
 369 1412 437 1425 509 1425 c 0
 686 1425 789 1349 859 1236 c 0
 939 1108 971 922 971 709 c 0
 971 507 950 339 888 214 c 0
 846 130 780 63 670 63 c 0
 571 63 516 116 516 211 c 1
 491 160 463 122 434 98 c 0
 405 74 369 63 328 63 c 0
 179 63 140 189 140 356 c 0
 140 546 185 718 271 826 c 0
 314 880 379 924 471 924 c 0
 513 924 566 912 590 897 c 1
 719 928 l 1
 639 408 l 2
 633 368 628 331 628 297 c 0
EndSplineSet
PickledDataWithLists: "(dp0
Vcom.schriftgestaltung.Glyphs.lastChange
p1
V2019/11/18 23:07:02
p2
s."
EndChar

StartChar: asciitilde_equal.liga
Encoding: 4 -1 4
GlifName: asciitilde_equal.liga
Width: 1126
VWidth: 0
Flags: W
HStem: 298 147<-746 747> 584 158<151.244 511.834> 836 158<-510.084 -152.147>
VStem: -746 160<641 754.155> 587 160<822.286 936>
LayerCount: 2
Fore
SplineSet
747 936 m 1
 747 756 647 656 509 610 c 0
 455 592 393 584 322 584 c 0
 210 584 124 610 52 651 c 0
 -10 685 -58 735 -115 771 c 0
 -173 808 -244 836 -332 836 c 0
 -391 836 -485 820 -513 789 c 0
 -541 758 -586 708 -586 641 c 1
 -746 641 l 1
 -746 819 -646 923 -510 968 c 0
 -456 986 -394 994 -323 994 c 0
 -211 994 -125 968 -52 927 c 0
 10 893 57 843 114 807 c 0
 172 770 243 742 331 742 c 0
 394 742 489 757 516 788 c 0
 543 819 587 868 587 936 c 1
 747 936 l 1
747 298 m 1
 -746 298 l 1
 -746 445 l 1
 747 445 l 1
 747 298 l 1
EndSplineSet
Validated: 1
PickledDataWithLists: "(dp0
Vcom.schriftgestaltung.Glyphs.lastChange
p1
V2019/11/18 23:05:38
p2
s."
EndChar

StartChar: asciitilde_greater.liga
Encoding: 5 -1 5
GlifName: asciitilde_greater.liga
Width: 1126
Flags: HW
HStem: 344 158<-303.307 -94.6716> 466 163<10.5282 227.855 235.078 510> 482 160<39.2724 506.934> 596 158<-729.535 -540.693>
VStem: -919 160<401 564.365>
LayerCount: 2
Fore
SplineSet
-919 401 m 5x98
 -919.086772378 405.360311979 -919.130250444 409.697565031 -919.130250444 414.010707674 c 4
 -919.130250444 608.523170972 -830.704767304 754 -637 754 c 4
 -558 754 -504 725 -457 689 c 4
 -409 653 -367 607 -325 567 c 4
 -293 536 -256 502 -201 502 c 4x98
 -159 502 5 606 49 618 c 4
 110 635 160 642 232 642 c 4x28
 297 642 405 634 510 629 c 5
 68 995 l 5
 176 1106 l 5
 848 545 l 5
 176 -16 l 5
 68 94 l 5
 519 466 l 5x48
 410 471 304 482 230 482 c 4x28
 184 482 153 480 112 470 c 4
 70 460 -42 390 -83 370 c 4
 -119 352 -160 344 -207 344 c 4
 -286 344 -340 373 -387 409 c 4
 -435 445 -477 491 -519 531 c 4
 -551 562 -588 596 -643 596 c 4
 -738 596 -759 510 -759 401 c 5
 -919 401 l 5x98
EndSplineSet
PickledDataWithLists: "(dp0
Vcom.schriftgestaltung.Glyphs.lastChange
p1
V2019/11/18 23:07:02
p2
s."
EndChar

StartChar: asciitilde_hyphen.liga
Encoding: 6 -1 6
GlifName: asciitilde_hyphen.liga
Width: 1126
Flags: HW
HStem: 361 164<-308.967 -79.1793> 463 164<-23.7641 721> 596 158<-729.535 -543.325>
VStem: -919 160<401 564.365>
LayerCount: 2
Fore
SplineSet
-919 401 m 5xb0
 -919.086772378 405.360311979 -919.130250444 409.697565031 -919.130250444 414.010707674 c 4
 -919.130250444 608.523170972 -830.704767304 754 -637 754 c 4
 -558 754 -504 725 -457 689 c 4
 -409 653 -372 616 -326 582 c 4
 -290 556 -256 525 -201 525 c 4xb0
 -159 525 -133 542 -101 558 c 4
 -83 567 -29 596 20 608 c 4
 90 627 151 626 203 627 c 5
 721 627 l 5
 721 463 l 5
 203 463 l 6x50
 150 463 60 458 21 441 c 4
 -47 411 -114 361 -207 361 c 4
 -286 361 -339 394 -388 428 c 4
 -436 461 -475 493 -519 531 c 4
 -553 560 -588 596 -643 596 c 4
 -738 596 -759 510 -759 401 c 5
 -919 401 l 5xb0
EndSplineSet
PickledDataWithLists: "(dp0
Vcom.schriftgestaltung.Glyphs.lastChange
p1
V2019/11/18 23:05:38
p2
s."
EndChar

StartChar: asterisk_asterisk.liga
Encoding: 7 -1 7
GlifName: asterisk_asterisk.liga
Width: 1126
Flags: W
LayerCount: 2
Fore
SplineSet
861 840 m 1
 793 721 l 1
 512 907 l 1
 535 565 l 1
 392 565 l 1
 414 907 l 1
 127 721 l 1
 64 838 l 1
 371 989 l 1
 64 1143 l 1
 133 1260 l 1
 416 1071 l 1
 392 1413 l 1
 535 1413 l 1
 510 1071 l 1
 793 1262 l 1
 863 1139 l 1
 555 987 l 1
 861 840 l 1
-65 840 m 1
 -133 721 l 1
 -414 907 l 1
 -391 565 l 1
 -534 565 l 1
 -512 907 l 1
 -799 721 l 1
 -862 838 l 1
 -555 989 l 1
 -862 1143 l 1
 -793 1260 l 1
 -510 1071 l 1
 -534 1413 l 1
 -391 1413 l 1
 -416 1071 l 1
 -133 1262 l 1
 -63 1139 l 1
 -371 987 l 1
 -65 840 l 1
EndSplineSet
Validated: 1
PickledDataWithLists: "(dp0
Vcom.schriftgestaltung.Glyphs.lastChange
p1
V2019/11/18 23:05:38
p2
s."
EndChar

StartChar: asterisk_asterisk_asterisk.liga
Encoding: 8 -1 8
GlifName: asterisk_asterisk_asterisk.liga
Width: 1126
Flags: W
LayerCount: 2
Fore
SplineSet
-958 380 m 1
 -1026 261 l 1
 -1307 447 l 1
 -1284 105 l 1
 -1427 105 l 1
 -1405 447 l 1
 -1692 261 l 1
 -1755 378 l 1
 -1448 529 l 1
 -1755 683 l 1
 -1686 800 l 1
 -1403 611 l 1
 -1427 953 l 1
 -1284 953 l 1
 -1309 611 l 1
 -1026 802 l 1
 -956 679 l 1
 -1264 527 l 1
 -958 380 l 1
628 380 m 1
 560 261 l 1
 279 447 l 1
 302 105 l 1
 159 105 l 1
 181 447 l 1
 -106 261 l 1
 -169 378 l 1
 138 529 l 1
 -169 683 l 1
 -100 800 l 1
 183 611 l 1
 159 953 l 1
 302 953 l 1
 277 611 l 1
 560 802 l 1
 630 679 l 1
 322 527 l 1
 628 380 l 1
-165 840 m 1
 -233 721 l 1
 -514 907 l 1
 -491 565 l 1
 -634 565 l 1
 -612 907 l 1
 -899 721 l 1
 -962 838 l 1
 -655 989 l 1
 -962 1143 l 1
 -893 1260 l 1
 -610 1071 l 1
 -634 1413 l 1
 -491 1413 l 1
 -516 1071 l 1
 -233 1262 l 1
 -163 1139 l 1
 -471 987 l 1
 -165 840 l 1
EndSplineSet
Validated: 1
PickledDataWithLists: "(dp0
Vcom.schriftgestaltung.Glyphs.lastChange
p1
V2019/11/18 23:05:38
p2
s."
EndChar

StartChar: asterisk_greater.liga
Encoding: 9 -1 9
GlifName: asterisk_greater.liga
Width: 1126
Flags: W
LayerCount: 2
Fore
SplineSet
-24 394 m 1
 -92 275 l 1
 -373 461 l 1
 -350 119 l 1
 -493 119 l 1
 -471 461 l 1
 -758 275 l 1
 -821 392 l 1
 -514 543 l 1
 -821 697 l 1
 -752 814 l 1
 -469 625 l 1
 -493 967 l 1
 -350 967 l 1
 -375 625 l 1
 -92 816 l 1
 -22 693 l 1
 -330 541 l 1
 -24 394 l 1
-133 985 m 1
 -45 1106 l 1
 977 545 l 1
 -45 -16 l 1
 -133 104 l 1
 662 543 l 1
 -133 985 l 1
EndSplineSet
PickledDataWithLists: "(dp0
Vcom.schriftgestaltung.Glyphs.lastChange
p1
V2019/11/18 23:05:38
p2
s."
EndChar

StartChar: asterisk_slash.liga
Encoding: 10 -1 10
GlifName: asterisk_slash.liga
Width: 1126
Flags: W
LayerCount: 2
Fore
SplineSet
826 1413 m 1
 140 -215 l 1
 -26 -215 l 1
 660 1413 l 1
 826 1413 l 1
-24 840 m 1
 -92 721 l 1
 -373 907 l 1
 -350 565 l 1
 -493 565 l 1
 -471 907 l 1
 -758 721 l 1
 -821 838 l 1
 -514 989 l 1
 -821 1143 l 1
 -752 1260 l 1
 -469 1071 l 1
 -493 1413 l 1
 -350 1413 l 1
 -375 1071 l 1
 -92 1262 l 1
 -22 1139 l 1
 -330 987 l 1
 -24 840 l 1
EndSplineSet
PickledDataWithLists: "(dp0
Vcom.schriftgestaltung.Glyphs.lastChange
p1
V2019/11/18 23:05:38
p2
s."
EndChar

StartChar: bar_bar.liga
Encoding: 11 -1 11
GlifName: bar_bar.liga
Width: 1126
Flags: W
VStem: -504 164<-410 1638> 340 164<-410 1638>
LayerCount: 2
Fore
SplineSet
504 -410 m 1
 340 -410 l 1
 340 1638 l 1
 504 1638 l 1
 504 -410 l 1
-340 -410 m 1
 -504 -410 l 1
 -504 1638 l 1
 -340 1638 l 1
 -340 -410 l 1
EndSplineSet
PickledDataWithLists: "(dp0
Vcom.schriftgestaltung.Glyphs.lastChange
p1
V2019/11/18 23:05:38
p2
s."
EndChar

StartChar: bar_bar_bar_greater.liga
Encoding: 12 -1 12
GlifName: bar_bar_bar_greater.liga
Width: 1126
Flags: W
VStem: -2474 164<-272 1364> -1630 164<-272 1364> -786 164<-14 1102>
CounterMasks: 1 e0
LayerCount: 2
Fore
SplineSet
-1466 -272 m 5
 -1630 -272 l 5
 -1630 1364 l 5
 -1466 1364 l 5
 -1466 -272 l 5
-2310 -272 m 5
 -2474 -272 l 5
 -2474 1364 l 5
 -2310 1364 l 5
 -2310 -272 l 5
-786 -272 m 5
 -786 1364 l 5
 703 545 l 5
 -786 -272 l 5
-622 -14 m 5
 388 543 l 5
 -622 1102 l 5
 -622 -14 l 5
EndSplineSet
PickledDataWithLists: "(dp0
Vcom.schriftgestaltung.Glyphs.lastChange
p1
V2019/11/18 23:05:38
p2
s."
EndChar

StartChar: bar_bar_equal.liga
Encoding: 13 -1 13
GlifName: bar_bar_equal.liga
Width: 1126
Flags: W
HStem: 298 147<-622 711> 646 147<-622 711>
VStem: -1489 164<-410 1638> -786 164<-410 298 445 646 793 1638>
LayerCount: 2
Fore
SplineSet
-1325 -410 m 1
 -1489 -410 l 1
 -1489 1638 l 1
 -1325 1638 l 1
 -1325 -410 l 1
-622 -410 m 1
 -786 -410 l 1
 -786 1638 l 1
 -622 1638 l 1
 -622 793 l 1
 711 793 l 1
 711 646 l 1
 -622 646 l 1
 -622 445 l 1
 711 445 l 1
 711 298 l 1
 -622 298 l 1
 -622 -410 l 1
EndSplineSet
PickledDataWithLists: "(dp0
Vcom.schriftgestaltung.Glyphs.lastChange
p1
V2019/11/18 23:05:38
p2
s."
EndChar

StartChar: bar_bar_greater.liga
Encoding: 14 -1 14
GlifName: bar_bar_greater.liga
Width: 1126
Flags: W
VStem: -1489 164<-272 1364> -645 164<-14 1102>
LayerCount: 2
Fore
SplineSet
-645 -272 m 5
 -645 1364 l 5
 844 545 l 5
 -645 -272 l 5
-481 -14 m 5
 529 543 l 5
 -481 1102 l 5
 -481 -14 l 5
-1325 -272 m 5
 -1489 -272 l 5
 -1489 1364 l 5
 -1325 1364 l 5
 -1325 -272 l 5
EndSplineSet
PickledDataWithLists: "(dp0
Vcom.schriftgestaltung.Glyphs.lastChange
p1
V2019/11/18 23:05:38
p2
s."
EndChar

StartChar: bar_braceright.liga
Encoding: 15 -1 15
GlifName: bar_braceright.liga
Width: 1126
Flags: W
HStem: -410 140<-340 300.674> 506 139<607.439 824> 1308 140<-340 300.674>
VStem: -504 164<-270 1308> 379 164<-198.791 454.053 709.208 1227.89>
LayerCount: 2
Fore
SplineSet
543 -45 m 2
 543 -295 415 -410 162 -410 c 2
 -504 -410 l 1
 -504 1448 l 1
 162 1448 l 2
 415 1448 543 1333 543 1083 c 2
 543 852 l 2
 543 698 625 645 781 645 c 2
 824 645 l 1
 824 506 l 1
 781 506 l 2
 662 506 577 485 553 395 c 0
 546 370 543 340 543 305 c 2
 543 -45 l 2
-340 1308 m 1
 -340 -270 l 1
 148 -270 l 2
 302 -270 379 -195 379 -45 c 2
 379 301 l 2
 379 464 449 555 590 575 c 1
 448 590 379 682 379 850 c 2
 379 1079 l 2
 379 1232 301 1308 148 1308 c 2
 -340 1308 l 1
EndSplineSet
PickledDataWithLists: "(dp0
Vcom.schriftgestaltung.Glyphs.lastChange
p1
V2019/11/18 23:07:02
p2
s."
EndChar

StartChar: bar_bracketright.liga
Encoding: 16 -1 16
GlifName: bar_bracketright.liga
Width: 1126
Flags: W
HStem: -410 140<-340 472> 1308 140<-340 472>
VStem: -504 164<-270 1308> 472 168<-270 1308>
LayerCount: 2
Fore
SplineSet
-504 1448 m 1
 640 1448 l 1
 640 -410 l 1
 -504 -410 l 1
 -504 1448 l 1
-340 1308 m 1
 -340 -270 l 1
 472 -270 l 1
 472 1308 l 1
 -340 1308 l 1
EndSplineSet
PickledDataWithLists: "(dp0
Vcom.schriftgestaltung.Glyphs.lastChange
p1
V2019/11/18 23:05:38
p2
s."
EndChar

StartChar: bar_equal.liga
Encoding: 17 -1 17
GlifName: bar_equal.liga
Width: 1126
Flags: W
HStem: 298 147<-340 852> 646 147<-340 852>
VStem: -504 164<-410 298 445 646 793 1638>
LayerCount: 2
Fore
SplineSet
-340 -410 m 1
 -504 -410 l 1
 -504 1638 l 1
 -340 1638 l 1
 -340 793 l 1
 852 793 l 1
 852 646 l 1
 -340 646 l 1
 -340 445 l 1
 852 445 l 1
 852 298 l 1
 -340 298 l 1
 -340 -410 l 1
EndSplineSet
PickledDataWithLists: "(dp0
Vcom.schriftgestaltung.Glyphs.lastChange
p1
V2019/11/18 23:05:38
p2
s."
EndChar

StartChar: bar_greater.liga
Encoding: 18 -1 18
GlifName: bar_greater.liga
Width: 1126
Flags: W
VStem: -504 164<-14 1102>
LayerCount: 2
Fore
SplineSet
-504 -272 m 5
 -504 1364 l 5
 985 545 l 5
 -504 -272 l 5
-340 -14 m 5
 670 543 l 5
 -340 1102 l 5
 -340 -14 l 5
EndSplineSet
PickledDataWithLists: "(dp0
Vcom.schriftgestaltung.Glyphs.lastChange
p1
V2019/11/18 23:05:38
p2
s."
EndChar

StartChar: bar_hyphen.liga
Encoding: 19 -1 19
GlifName: bar_hyphen.liga
Width: 1126
Flags: W
HStem: 463 164<-340 721>
VStem: -504 164<-410 463 627 1638>
LayerCount: 2
Fore
SplineSet
-340 -410 m 1
 -504 -410 l 1
 -504 1638 l 1
 -340 1638 l 1
 -340 627 l 1
 721 627 l 1
 721 463 l 1
 -340 463 l 1
 -340 -410 l 1
EndSplineSet
PickledDataWithLists: "(dp0
Vcom.schriftgestaltung.Glyphs.lastChange
p1
V2019/11/18 23:05:38
p2
s."
EndChar

StartChar: braceleft_bar.liga
Encoding: 20 -1 20
GlifName: braceleft_bar.liga
Width: 1126
Flags: W
HStem: -410 140<-300.674 340> 506 139<-823 -607.257> 1308 140<-300.287 340>
VStem: -543 166<-190.293 443.16 696.895 1236.38> 340 164<-270 1308>
LayerCount: 2
Fore
SplineSet
-543 1083 m 2
 -543 1332 -414 1448 -162 1448 c 2
 504 1448 l 1
 504 -410 l 1
 -162 -410 l 2
 -415 -410 -543 -296 -543 -45 c 2
 -543 299 l 2
 -543 452 -624 506 -780 506 c 2
 -823 506 l 1
 -823 645 l 1
 -780 645 l 2
 -660 645 -578 666 -553 756 c 0
 -546 781 -543 811 -543 846 c 2
 -543 1083 l 2
340 1308 m 1
 -147 1308 l 2
 -302 1308 -379 1233 -379 1083 c 2
 -379 850 l 2
 -379 687 -449 596 -590 575 c 1
 -448 575 -377 470 -377 301 c 2
 -377 -41 l 2
 -377 -194 -300 -270 -147 -270 c 2
 340 -270 l 1
 340 1308 l 1
EndSplineSet
PickledDataWithLists: "(dp0
Vcom.schriftgestaltung.Glyphs.lastChange
p1
V2019/11/18 23:07:02
p2
s."
EndChar

StartChar: braceright_numbersign.liga
Encoding: 21 -1 21
GlifName: braceright_numbersign.liga
Width: 1126
Flags: W
HStem: -410 140<-756 -543.326> 0 21G<78 228.016 481 631.016> 367 130<-235.534 115 276 518 679 889> 847 130<-301 164 324 567 727 942> 1308 140<-756 -543.326>
VStem: -465 164<-198.791 310.053 565.208 847 977 1228.29>
LayerCount: 2
Fore
SplineSet
-301 -45 m 2
 -301 -295 -429 -410 -682 -410 c 2
 -756 -410 l 1
 -756 -270 l 1
 -696 -270 l 2
 -542 -270 -465 -195 -465 -45 c 2
 -465 157 l 2
 -465 320 -395 411 -254 431 c 1
 -396 446 -465 538 -465 706 c 2
 -465 1079 l 2
 -465 1232 -543 1308 -696 1308 c 2
 -756 1308 l 1
 -756 1448 l 1
 -682 1448 l 2
 -429 1448 -301 1334 -301 1083 c 2
 -301 977 l 1
 177 977 l 1
 211 1308 l 1
 357 1308 l 1
 324 977 l 1
 580 977 l 1
 614 1308 l 1
 762 1308 l 1
 727 977 l 1
 942 977 l 1
 942 847 l 1
 714 847 l 1
 679 497 l 1
 889 497 l 1
 889 367 l 1
 666 367 l 1
 629 0 l 1
 481 0 l 1
 518 367 l 1
 263 367 l 1
 226 0 l 1
 78 0 l 1
 115 367 l 1
 56 367 -4 367 -63 367 c 0
 -182 367 -265 344 -291 251 c 0
 -298 226 -301 196 -301 161 c 2
 -301 -45 l 2
532 497 m 1
 567 847 l 1
 311 847 l 1
 276 497 l 1
 532 497 l 1
-301 847 m 1
 -301 708 l 2
 -301 554 -216 497 -63 497 c 0
 1 497 64 497 128 497 c 1
 164 847 l 1
 -301 847 l 1
EndSplineSet
PickledDataWithLists: "(dp0
Vcom.schriftgestaltung.Glyphs.lastChange
p1
V2019/11/18 23:07:02
p2
s."
EndChar

StartChar: bracketleft_bar.liga
Encoding: 22 -1 22
GlifName: bracketleft_bar.liga
Width: 1126
Flags: W
HStem: -410 140<-474 340> 1308 140<-474 340>
VStem: -640 166<-270 1308> 340 164<-270 1308>
LayerCount: 2
Fore
SplineSet
504 1448 m 1
 504 -410 l 1
 -640 -410 l 1
 -640 1448 l 1
 504 1448 l 1
340 1308 m 1
 -474 1308 l 1
 -474 -270 l 1
 340 -270 l 1
 340 1308 l 1
EndSplineSet
PickledDataWithLists: "(dp0
Vcom.schriftgestaltung.Glyphs.lastChange
p1
V2019/11/18 23:05:38
p2
s."
EndChar

StartChar: bracketright_numbersign.liga
Encoding: 23 -1 23
GlifName: bracketright_numbersign.liga
Width: 1126
Flags: W
HStem: -410 140<-697 -372> 0 21G<78 228.016 481 631.016> 367 130<-204 115 276 518 679 889> 847 130<-204 164 324 567 727 942> 1308 140<-697 -372>
VStem: -372 168<-270 367 497 847 977 1308>
LayerCount: 2
Fore
SplineSet
-204 -410 m 1
 -697 -410 l 1
 -697 -270 l 1
 -372 -270 l 1
 -372 1308 l 1
 -697 1308 l 1
 -697 1448 l 1
 -204 1448 l 1
 -204 977 l 1
 177 977 l 1
 211 1308 l 1
 357 1308 l 1
 324 977 l 1
 580 977 l 1
 614 1308 l 1
 762 1308 l 1
 727 977 l 1
 942 977 l 1
 942 847 l 1
 714 847 l 1
 679 497 l 1
 889 497 l 1
 889 367 l 1
 666 367 l 1
 629 0 l 1
 481 0 l 1
 518 367 l 1
 263 367 l 1
 226 0 l 1
 78 0 l 1
 115 367 l 1
 -204 367 l 1
 -204 -410 l 1
532 497 m 1
 567 847 l 1
 311 847 l 1
 276 497 l 1
 532 497 l 1
-204 847 m 1
 -204 497 l 1
 128 497 l 1
 164 847 l 1
 -204 847 l 1
EndSplineSet
PickledDataWithLists: "(dp0
Vcom.schriftgestaltung.Glyphs.lastChange
p1
V2019/11/18 23:05:38
p2
s."
EndChar

StartChar: colon_colon.liga
Encoding: 24 -1 24
GlifName: colon_colon.liga
Width: 1126
Flags: W
HStem: -18 307<-527.686 -314.997 316.314 529.003> 715 307<-528.913 -314.997 315.087 529.003>
VStem: -575 307<25.875 241.904 758.875 975.165> 269 307<25.875 241.904 758.875 975.165>
LayerCount: 2
Fore
SplineSet
422 1022 m 0
 493 1022 542 977 564 927 c 0
 572 908 576 889 576 868 c 0
 576 781 509 715 422 715 c 0
 334 715 269 781 269 868 c 0
 269 939 312 987 362 1010 c 0
 380 1018 401 1022 422 1022 c 0
422 289 m 0
 493 289 542 244 564 194 c 0
 572 175 576 156 576 135 c 0
 576 48 509 -18 422 -18 c 0
 334 -18 269 48 269 135 c 0
 269 206 312 253 362 276 c 0
 380 284 401 289 422 289 c 0
-422 1022 m 0
 -351 1022 -302 977 -280 927 c 0
 -272 908 -268 889 -268 868 c 0
 -268 781 -335 715 -422 715 c 0
 -510 715 -575 781 -575 868 c 0
 -575 939 -532 987 -482 1010 c 0
 -464 1018 -443 1022 -422 1022 c 0
-422 289 m 0
 -351 289 -302 244 -280 194 c 0
 -272 175 -268 156 -268 135 c 0
 -268 48 -335 -18 -422 -18 c 0
 -510 -18 -575 48 -575 135 c 0
 -575 206 -532 253 -482 276 c 0
 -464 284 -443 289 -422 289 c 0
EndSplineSet
PickledDataWithLists: "(dp0
Vcom.schriftgestaltung.Glyphs.lastChange
p1
V2019/11/18 23:05:38
p2
s."
EndChar

StartChar: colon_colon_colon.liga
Encoding: 25 -1 25
GlifName: colon_colon_colon.liga
Width: 1126
Flags: W
HStem: -18 307<-1511.26 -1300 -667.263 -455.997 176.737 388.003> 715 307<-1513.89 -1300 -669.892 -455.997 174.108 388.003>
VStem: -1560 307<25.875 241.904 758.875 973.684> -716 307<25.875 241.904 758.875 973.684> 128 307<25.875 241.904 758.875 973.684>
CounterMasks: 1 38
LayerCount: 2
Fore
SplineSet
281 1022 m 0
 352 1022 400 977 422 927 c 0
 430 908 435 889 435 868 c 0
 435 781 368 715 281 715 c 0
 193 715 128 781 128 868 c 0
 128 939 172 987 222 1010 c 0
 240 1018 260 1022 281 1022 c 0
281 289 m 0
 352 289 400 244 422 194 c 0
 430 175 435 156 435 135 c 0
 435 48 368 -18 281 -18 c 0
 193 -18 128 48 128 135 c 0
 128 206 172 253 222 276 c 0
 240 284 260 289 281 289 c 0
-1407 1022 m 0
 -1336 1022 -1288 977 -1266 927 c 0
 -1258 908 -1253 889 -1253 868 c 0
 -1253 781 -1320 715 -1407 715 c 0
 -1495 715 -1560 781 -1560 868 c 0
 -1560 939 -1516 987 -1466 1010 c 0
 -1448 1018 -1428 1022 -1407 1022 c 0
-1407 289 m 0
 -1336 289 -1288 244 -1266 194 c 0
 -1258 175 -1253 156 -1253 135 c 0
 -1253 48 -1320 -18 -1407 -18 c 0
 -1495 -18 -1560 48 -1560 135 c 0
 -1560 206 -1516 253 -1466 276 c 0
 -1448 284 -1428 289 -1407 289 c 0
-563 1022 m 0
 -492 1022 -444 977 -422 927 c 0
 -414 908 -409 889 -409 868 c 0
 -409 781 -476 715 -563 715 c 0
 -651 715 -716 781 -716 868 c 0
 -716 939 -672 987 -622 1010 c 0
 -604 1018 -584 1022 -563 1022 c 0
-563 289 m 0
 -492 289 -444 244 -422 194 c 0
 -414 175 -409 156 -409 135 c 0
 -409 48 -476 -18 -563 -18 c 0
 -651 -18 -716 48 -716 135 c 0
 -716 206 -672 253 -622 276 c 0
 -604 284 -584 289 -563 289 c 0
EndSplineSet
PickledDataWithLists: "(dp0
Vcom.schriftgestaltung.Glyphs.lastChange
p1
V2019/11/18 23:05:38
p2
s."
EndChar

StartChar: colon_colon_equal.liga
Encoding: 26 -1 26
GlifName: colon_colon_equal.liga
Width: 1126
Flags: W
HStem: -18 307<-1512.44 -1300 -950.439 -737.997> 298 147<-431 711> 646 147<-431 711> 715 307<-1513.53 -1297.38 -951.527 -735.375>
VStem: -1560 307<28.4731 241.617 758.875 974.617> -998 307<28.4731 241.617 758.875 974.617>
LayerCount: 2
Fore
SplineSet
711 646 m 1xec
 -431 646 l 1
 -431 793 l 1
 711 793 l 1
 711 646 l 1xec
711 298 m 1
 -431 298 l 1
 -431 445 l 1
 711 445 l 1
 711 298 l 1
-845 715 m 0xdc
 -932 715 -998 780 -998 868 c 0
 -998 939 -954 988 -904 1010 c 0
 -886 1018 -866 1022 -845 1022 c 0
 -758 1022 -691 954 -691 868 c 0
 -691 781 -758 715 -845 715 c 0xdc
-845 289 m 0
 -759 289 -691 221 -691 135 c 0
 -691 48 -758 -18 -845 -18 c 0
 -916 -18 -964 26 -986 76 c 0
 -994 94 -998 114 -998 135 c 0
 -998 206 -954 254 -904 276 c 0
 -886 284 -866 289 -845 289 c 0
-1407 715 m 0
 -1494 715 -1560 780 -1560 868 c 0
 -1560 939 -1516 988 -1466 1010 c 0
 -1448 1018 -1428 1022 -1407 1022 c 0
 -1320 1022 -1253 954 -1253 868 c 0
 -1253 781 -1320 715 -1407 715 c 0
-1407 289 m 0
 -1321 289 -1253 221 -1253 135 c 0
 -1253 48 -1320 -18 -1407 -18 c 0
 -1478 -18 -1526 26 -1548 76 c 0
 -1556 94 -1560 114 -1560 135 c 0
 -1560 206 -1516 254 -1466 276 c 0
 -1448 284 -1428 289 -1407 289 c 0
EndSplineSet
PickledDataWithLists: "(dp0
Vcom.schriftgestaltung.Glyphs.lastChange
p1
V2019/11/18 23:05:38
p2
s."
EndChar

StartChar: colon_equal.liga
Encoding: 27 -1 27
GlifName: colon_equal.liga
Width: 1126
Flags: W
HStem: -18 307<-527.439 -314.997> 298 147<-8 852> 646 147<-8 852> 715 307<-528.892 -312.375>
VStem: -575 307<28.4731 241.617 761.473 974.617>
LayerCount: 2
Fore
SplineSet
852 646 m 1xe8
 -8 646 l 1
 -8 793 l 1
 852 793 l 1
 852 646 l 1xe8
852 298 m 1
 -8 298 l 1
 -8 445 l 1
 852 445 l 1
 852 298 l 1
-422 1022 m 0xd8
 -335 1022 -268 954 -268 868 c 0
 -268 781 -335 715 -422 715 c 0
 -492 715 -541 758 -563 808 c 0
 -571 826 -575 847 -575 868 c 0
 -575 939 -531 988 -481 1010 c 0
 -463 1018 -443 1022 -422 1022 c 0xd8
-422 289 m 0
 -336 289 -268 221 -268 135 c 0
 -268 48 -335 -18 -422 -18 c 0
 -493 -18 -541 26 -563 76 c 0
 -571 94 -575 114 -575 135 c 0
 -575 206 -531 254 -481 276 c 0
 -463 284 -443 289 -422 289 c 0
EndSplineSet
PickledDataWithLists: "(dp0
Vcom.schriftgestaltung.Glyphs.lastChange
p1
V2019/11/18 23:05:38
p2
s."
EndChar

StartChar: colon_greater.liga
Encoding: 28 -1 28
GlifName: colon_greater.liga
Width: 1126
Flags: HW
HStem: -18 307<-527.686 -314.997> 715 307<-528.913 -314.997>
VStem: -575 307<25.875 241.904 758.875 975.165>
LayerCount: 2
Fore
SplineSet
-422 1022 m 0
 -351 1022 -302 977 -280 927 c 0
 -272 908 -268 889 -268 868 c 0
 -268 781 -335 715 -422 715 c 0
 -510 715 -575 781 -575 868 c 0
 -575 939 -532 987 -482 1010 c 0
 -464 1018 -443 1022 -422 1022 c 0
-422 289 m 0
 -351 289 -302 244 -280 194 c 0
 -272 175 -268 156 -268 135 c 0
 -268 48 -335 -18 -422 -18 c 0
 -510 -18 -575 48 -575 135 c 0
 -575 206 -532 253 -482 276 c 0
 -464 284 -443 289 -422 289 c 0
-125 985 m 5
 -37 1106 l 5
 985 545 l 5
 -37 -16 l 5
 -125 104 l 5
 670 543 l 5
 -125 985 l 5
EndSplineSet
PickledDataWithLists: "(dp0
Vcom.schriftgestaltung.Glyphs.lastChange
p1
V2019/11/18 23:05:38
p2
s."
EndChar

StartChar: colon_less.liga
Encoding: 29 -1 29
GlifName: colon_less.liga
Width: 1126
Flags: W
HStem: -18 307<-527.686 -314.997> 715 307<-528.913 -314.997>
VStem: -575 307<25.875 241.904 758.875 975.165>
LayerCount: 2
Fore
SplineSet
-422 1022 m 0
 -351 1022 -302 977 -280 927 c 0
 -272 908 -268 889 -268 868 c 0
 -268 781 -335 715 -422 715 c 0
 -510 715 -575 781 -575 868 c 0
 -575 939 -532 987 -482 1010 c 0
 -464 1018 -443 1022 -422 1022 c 0
-422 289 m 0
 -351 289 -302 244 -280 194 c 0
 -272 175 -268 156 -268 135 c 0
 -268 48 -335 -18 -422 -18 c 0
 -510 -18 -575 48 -575 135 c 0
 -575 206 -532 253 -482 276 c 0
 -464 284 -443 289 -422 289 c 0
969 985 m 5
 174 543 l 5
 969 104 l 5
 881 -16 l 5
 -141 545 l 5
 881 1106 l 5
 969 985 l 5
EndSplineSet
PickledDataWithLists: "(dp0
Vcom.schriftgestaltung.Glyphs.lastChange
p1
V2019/11/18 23:05:38
p2
s."
EndChar

StartChar: dollar_greater.liga
Encoding: 30 -1 30
GlifName: dollar_greater.liga
Width: 1126
Flags: HW
HStem: 1155 150<-748.371 -579>
VStem: -1005 186<865.055 1088.46> -309 187<229.595 461.917>
LayerCount: 2
Fore
SplineSet
-426 156 m 1
 -279 156 -168 213 -168 352 c 0
 -168 439 -224 480 -285 511 c 0
 -310 524 -340 538 -375 551 c 1
 -426 156 l 1
-438 1155 m 1
 -570 1155 -678 1099 -678 975 c 0
 -678 929 -662 891 -631 862 c 0
 -599 832 -552 805 -489 780 c 1
 -438 1155 l 1
-592 0 m 1
 -690 0 -795 24 -874 45 c 1
 -874 211 l 1
 -785 180 -687 156 -571 156 c 1
 -512 606 l 1
 -642 656 -768 710 -833 825 c 0
 -854 862 -864 905 -864 956 c 0
 -864 1124 -748 1219 -618 1268 c 0
 -562 1288 -495 1305 -418 1305 c 1
 -393 1495 l 1
 -248 1495 l 1
 -274 1302 l 1
 848 545 l 1
 176 -16 l 1
 68 94 l 1
 585 520 l 1
 585 520 6 957 -298 1120 c 5
 -350 725 l 1
 -216 673 -81 616 -13 498 c 0
 8 460 19 415 19 362 c 0
 19 173 -107 77 -257 32 c 0
 -314 16 -377 0 -446 0 c 1
 -479 -236 l 1
 -625 -236 l 1
 -592 0 l 1
EndSplineSet
PickledDataWithLists: "(dp0
Vcom.schriftgestaltung.Glyphs.lastChange
p1
V2019/11/18 23:07:02
p2
s."
EndChar

StartChar: equal_colon_equal.liga
Encoding: 31 -1 31
GlifName: equal_colon_equal.liga
Width: 1126
Flags: W
HStem: -18 307<-669.892 -455.997> 298 147<-1837 -971 -155 711> 646 147<-1837 -971 -155 711> 715 307<-669.892 -455.997>
VStem: -716 307<25.875 242.165 758.875 973.684>
LayerCount: 2
Fore
SplineSet
-1837 646 m 1xe8
 -1837 793 l 1
 -971 793 l 1
 -971 646 l 1
 -1837 646 l 1xe8
-1837 298 m 1
 -1837 445 l 1
 -971 445 l 1
 -971 298 l 1
 -1837 298 l 1
711 646 m 1
 -155 646 l 1
 -155 793 l 1
 711 793 l 1
 711 646 l 1
711 298 m 1
 -155 298 l 1
 -155 445 l 1
 711 445 l 1
 711 298 l 1
-563 1022 m 0xd8
 -492 1022 -444 977 -422 927 c 0
 -413 908 -409 889 -409 868 c 0
 -409 781 -476 715 -563 715 c 0
 -651 715 -716 781 -716 868 c 0
 -716 939 -672 987 -622 1010 c 0
 -604 1018 -584 1022 -563 1022 c 0xd8
-563 289 m 0
 -492 289 -444 244 -422 194 c 0
 -413 175 -409 156 -409 135 c 0
 -409 48 -476 -18 -563 -18 c 0
 -651 -18 -716 48 -716 135 c 0
 -716 206 -672 254 -622 276 c 0
 -604 285 -584 289 -563 289 c 0
EndSplineSet
PickledDataWithLists: "(dp0
Vcom.schriftgestaltung.Glyphs.lastChange
p1
V2019/11/18 23:05:38
p2
s."
EndChar

StartChar: equal_equal.liga
Encoding: 32 -1 32
GlifName: equal_equal.liga
Width: 1126
Flags: W
HStem: 298 147<-852 852> 646 147<-852 852>
LayerCount: 2
Fore
SplineSet
852 445 m 1
 852 298 l 1
 -852 298 l 1
 -852 445 l 1
 852 445 l 1
852 793 m 1
 852 646 l 1
 -852 646 l 1
 -852 793 l 1
 852 793 l 1
EndSplineSet
PickledDataWithLists: "(dp0
Vcom.schriftgestaltung.Glyphs.lastChange
p1
V2019/11/18 23:05:38
p2
s."
EndChar

StartChar: equal_equal_equal.liga
Encoding: 33 -1 33
GlifName: equal_equal_equal.liga
Width: 1126
Flags: W
HStem: 143 147<-1837 711> 471 147<-1837 711> 799 147<-1837 711>
CounterMasks: 1 e0
LayerCount: 2
Fore
SplineSet
711 290 m 5
 711 143 l 5
 -1837 143 l 5
 -1837 290 l 5
 711 290 l 5
711 618 m 5
 711 471 l 5
 -1837 471 l 5
 -1837 618 l 5
 711 618 l 5
711 946 m 5
 711 799 l 5
 -1837 799 l 5
 -1837 946 l 5
 711 946 l 5
EndSplineSet
PickledDataWithLists: "(dp0
Vcom.schriftgestaltung.Glyphs.lastChange
p1
V2019/11/18 23:05:38
p2
s."
EndChar

StartChar: equal_equal_greater.liga
Encoding: 34 -1 34
GlifName: equal_equal_greater.liga
Width: 1126
Flags: W
HStem: 298 147<-1837 175> 646 147<-1837 171>
LayerCount: 2
Fore
SplineSet
-73 995 m 1
 35 1106 l 1
 707 545 l 1
 35 -16 l 1
 -73 94 l 1
 175 298 l 1
 -1837 298 l 1
 -1837 445 l 1
 353 445 l 1
 472 543 l 1
 348 646 l 1
 -1837 646 l 1
 -1837 793 l 1
 171 793 l 1
 -73 995 l 1
EndSplineSet
PickledDataWithLists: "(dp0
Vcom.schriftgestaltung.Glyphs.lastChange
p1
V2019/11/18 23:05:38
p2
s."
EndChar

StartChar: equal_exclam_equal.liga
Encoding: 35 -1 35
GlifName: equal_exclam_equal.liga
Width: 1126
Flags: W
HStem: -18 264<-666.088 -467.103> 298 147<-1837 -953 -179 711> 646 147<-1837 -953 -179 711>
VStem: -698 264<15.1032 214.088> -671 211<920.797 1413> -641 154<383 875.203>
LayerCount: 2
Fore
SplineSet
-460 1413 m 1xe8
 -487 383 l 1
 -641 383 l 1xe4
 -671 1413 l 1
 -460 1413 l 1xe8
-698 113 m 256xf0
 -698 189 -641 246 -565 246 c 0
 -490 246 -434 188 -434 113 c 256
 -434 38 -490 -18 -565 -18 c 0
 -640 -18 -698 38 -698 113 c 256xf0
-1837 646 m 1
 -1837 793 l 1
 -953 793 l 1
 -953 646 l 1
 -1837 646 l 1
-1837 298 m 1
 -1837 445 l 1
 -953 445 l 1
 -953 298 l 1
 -1837 298 l 1
711 646 m 1
 -179 646 l 1
 -179 793 l 1
 711 793 l 1
 711 646 l 1
711 298 m 1
 -179 298 l 1
 -179 445 l 1
 711 445 l 1
 711 298 l 1
EndSplineSet
PickledDataWithLists: "(dp0
Vcom.schriftgestaltung.Glyphs.lastChange
p1
V2019/11/18 23:05:38
p2
s."
EndChar

StartChar: equal_greater.liga
Encoding: 36 -1 36
GlifName: equal_greater.liga
Width: 1126
Flags: W
HStem: 298 147<-852 316> 646 147<-852 312>
LayerCount: 2
Fore
SplineSet
68 995 m 1
 176 1106 l 1
 848 545 l 1
 176 -16 l 1
 68 94 l 1
 316 298 l 1
 -852 298 l 1
 -852 445 l 1
 494 445 l 1
 613 543 l 1
 489 646 l 1
 -852 646 l 1
 -852 793 l 1
 312 793 l 1
 68 995 l 1
EndSplineSet
PickledDataWithLists: "(dp0
Vcom.schriftgestaltung.Glyphs.lastChange
p1
V2019/11/18 23:05:38
p2
s."
EndChar

StartChar: equal_greater_greater.liga
Encoding: 37 -1 37
GlifName: equal_greater_greater.liga
Width: 1126
Flags: W
HStem: 298 147<-1837 -388> 646 147<-1837 -392>
LayerCount: 2
Fore
SplineSet
-636 995 m 1
 -528 1106 l 1
 144 545 l 1
 -528 -16 l 1
 -636 94 l 1
 -388 298 l 1
 -1837 298 l 1
 -1837 445 l 1
 -210 445 l 1
 -91 543 l 1
 -215 646 l 1
 -1837 646 l 1
 -1837 793 l 1
 -392 793 l 1
 -636 995 l 1
-73 995 m 1
 35 1106 l 1
 707 545 l 1
 35 -16 l 1
 -73 94 l 1
 472 543 l 1
 -73 995 l 1
EndSplineSet
PickledDataWithLists: "(dp0
Vcom.schriftgestaltung.Glyphs.lastChange
p1
V2019/11/18 23:05:38
p2
s."
EndChar

StartChar: equal_less_less.liga
Encoding: 38 -1 38
GlifName: equal_less_less.liga
Width: 1126
Flags: W
HStem: 298 147<-1837 -588> 646 147<-1837 -587>
LayerCount: 2
Fore
SplineSet
73 94 m 1
 -36 -16 l 1
 -412 298 l 1
 -1837 298 l 1
 -1837 445 l 1
 -588 445 l 1
 -708 545 l 1
 -587 646 l 1
 -1837 646 l 1
 -1837 793 l 1
 -411 793 l 1
 -36 1106 l 1
 73 995 l 1
 -472 547 l 1
 73 94 l 1
636 94 m 1
 527 -16 l 1
 -145 545 l 1
 527 1106 l 1
 636 995 l 1
 91 547 l 1
 636 94 l 1
EndSplineSet
PickledDataWithLists: "(dp0
Vcom.schriftgestaltung.Glyphs.lastChange
p1
V2019/11/18 23:05:38
p2
s."
EndChar

StartChar: equal_slash_equal.liga
Encoding: 39 -1 39
GlifName: equal_slash_equal.liga
Width: 1126
Flags: W
HStem: 298 147<-1837 -795 -567 711> 646 147<-1837 -648 -420 711>
LayerCount: 2
Fore
SplineSet
711 445 m 1
 711 298 l 1
 -629 298 l 1
 -845 -215 l 1
 -1011 -215 l 1
 -795 298 l 1
 -1837 298 l 1
 -1837 445 l 1
 -733 445 l 1
 -648 646 l 1
 -1837 646 l 1
 -1837 793 l 1
 -586 793 l 1
 -325 1413 l 1
 -159 1413 l 1
 -420 793 l 1
 711 793 l 1
 711 646 l 1
 -482 646 l 1
 -567 445 l 1
 711 445 l 1
EndSplineSet
PickledDataWithLists: "(dp0
Vcom.schriftgestaltung.Glyphs.lastChange
p1
V2019/11/18 23:05:38
p2
s."
EndChar

StartChar: exclam_equal.liga
Encoding: 40 -1 40
GlifName: exclam_equal.liga
Width: 1126
Flags: W
HStem: 298 147<-852 -232 -4 852> 646 147<-852 -85 143 852>
LayerCount: 2
Fore
SplineSet
-170 445 m 1
 -85 646 l 1
 -852 646 l 1
 -852 793 l 1
 -23 793 l 1
 238 1413 l 1
 404 1413 l 1
 143 793 l 1
 852 793 l 1
 852 646 l 1
 81 646 l 1
 -4 445 l 1
 852 445 l 1
 852 298 l 1
 -66 298 l 1
 -282 -215 l 1
 -448 -215 l 1
 -232 298 l 1
 -852 298 l 1
 -852 445 l 1
 -170 445 l 1
EndSplineSet
PickledDataWithLists: "(dp0
Vcom.schriftgestaltung.Glyphs.lastChange
p1
V2019/11/18 23:05:38
p2
s."
EndChar

StartChar: exclam_equal_equal.liga
Encoding: 41 -1 41
GlifName: exclam_equal_equal.liga
Width: 1126
Flags: W
HStem: 143 147<-1837 -860 -632 711> 471 147<-1837 -722 -494 711> 799 147<-1837 -584 -356 711>
CounterMasks: 1 e0
LayerCount: 2
Fore
SplineSet
711 946 m 1
 711 799 l 1
 -418 799 l 1
 -494 618 l 1
 711 618 l 1
 711 471 l 1
 -556 471 l 1
 -632 290 l 1
 711 290 l 1
 711 143 l 1
 -694 143 l 1
 -845 -215 l 1
 -1011 -215 l 1
 -860 143 l 1
 -1837 143 l 1
 -1837 290 l 1
 -798 290 l 1
 -722 471 l 1
 -1837 471 l 1
 -1837 618 l 1
 -660 618 l 1
 -584 799 l 1
 -1837 799 l 1
 -1837 946 l 1
 -522 946 l 1
 -325 1413 l 1
 -159 1413 l 1
 -356 946 l 1
 711 946 l 1
EndSplineSet
PickledDataWithLists: "(dp0
Vcom.schriftgestaltung.Glyphs.lastChange
p1
V2019/11/18 23:05:38
p2
s."
EndChar

StartChar: exclam_exclam.liga
Encoding: 42 -1 42
GlifName: exclam_exclam.liga
Width: 1126
Flags: W
HStem: -18 264<-525.088 -326.103 318.912 517.897>
VStem: -557 264<15.1032 214.088> -530 211<920.797 1413> -500 154<383 875.203> 287 264<15.1032 214.088> 314 211<920.797 1413> 344 154<383 875.203>
LayerCount: 2
Fore
SplineSet
-319 1413 m 1xa0
 -346 383 l 1
 -500 383 l 1x90
 -530 1413 l 1
 -319 1413 l 1xa0
-557 113 m 256xc0
 -557 189 -500 246 -424 246 c 0
 -349 246 -293 188 -293 113 c 256
 -293 38 -349 -18 -424 -18 c 0
 -499 -18 -557 38 -557 113 c 256xc0
525 1413 m 1x84
 498 383 l 1
 344 383 l 1x82
 314 1413 l 1
 525 1413 l 1x84
287 113 m 256x88
 287 189 344 246 420 246 c 0
 495 246 551 188 551 113 c 256
 551 38 495 -18 420 -18 c 0
 345 -18 287 38 287 113 c 256x88
EndSplineSet
PickledDataWithLists: "(dp0
Vcom.schriftgestaltung.Glyphs.lastChange
p1
V2019/11/18 23:05:38
p2
s."
EndChar

StartChar: exclam_exclam_period.liga
Encoding: 43 -1 43
GlifName: exclam_exclam_period.liga
Width: 1126
Flags: W
HStem: -18 264<-1510.09 -1311.1 -666.088 -467.103 177.912 376.897>
VStem: -1542 264<15.1032 214.088> -1515 211<920.797 1413> -1485 154<383 875.203> -698 264<15.1032 214.088> -671 211<920.797 1413> -641 154<383 875.203> 146 264<15.1032 214.088> 173 211<920.797 1413> 203 154<383 875.203>
LayerCount: 2
Fore
SplineSet
384 1413 m 1x8080
 357 383 l 1
 203 383 l 1x8040
 173 1413 l 1
 384 1413 l 1x8080
146 113 m 256x81
 146 189 203 246 279 246 c 0
 354 246 410 188 410 113 c 256
 410 38 354 -18 279 -18 c 0
 204 -18 146 38 146 113 c 256x81
-1304 1413 m 1xa0
 -1331 383 l 1
 -1485 383 l 1x90
 -1515 1413 l 1
 -1304 1413 l 1xa0
-1542 113 m 256xc0
 -1542 189 -1485 246 -1409 246 c 0
 -1334 246 -1278 188 -1278 113 c 256
 -1278 38 -1334 -18 -1409 -18 c 0
 -1484 -18 -1542 38 -1542 113 c 256xc0
-460 1413 m 1x84
 -487 383 l 1
 -641 383 l 1x82
 -671 1413 l 1
 -460 1413 l 1x84
-698 113 m 256x88
 -698 189 -641 246 -565 246 c 0
 -490 246 -434 188 -434 113 c 256
 -434 38 -490 -18 -565 -18 c 0
 -640 -18 -698 38 -698 113 c 256x88
EndSplineSet
PickledDataWithLists: "(dp0
Vcom.schriftgestaltung.Glyphs.lastChange
p1
V2019/11/18 23:05:38
p2
s."
EndChar

StartChar: greater_colon.liga
Encoding: 44 -1 44
GlifName: greater_colon.liga
Width: 1126
Flags: W
HStem: -18 307<316.314 529.003> 715 307<315.087 529.003>
VStem: 269 307<25.875 241.904 758.875 975.165>
LayerCount: 2
Fore
SplineSet
422 1022 m 0
 493 1022 542 977 564 927 c 0
 572 908 576 889 576 868 c 0
 576 781 509 715 422 715 c 0
 334 715 269 781 269 868 c 0
 269 939 312 987 362 1010 c 0
 380 1018 401 1022 422 1022 c 0
422 289 m 0
 493 289 542 244 564 194 c 0
 572 175 576 156 576 135 c 0
 576 48 509 -18 422 -18 c 0
 334 -18 269 48 269 135 c 0
 269 206 312 253 362 276 c 0
 380 284 401 289 422 289 c 0
-969 985 m 5
 -881 1106 l 5
 141 545 l 5
 -881 -16 l 5
 -969 104 l 5
 -174 543 l 5
 -969 985 l 5
EndSplineSet
PickledDataWithLists: "(dp0
Vcom.schriftgestaltung.Glyphs.lastChange
p1
V2019/11/18 23:05:38
p2
s."
EndChar

StartChar: greater_equal.liga
Encoding: 45 -1 45
GlifName: greater_equal.liga
Width: 1126
Flags: W
HStem: 0 145<-645 645>
LayerCount: 2
Fore
SplineSet
-552 1104 m 5
 -495 1241 l 5
 600 778 l 5
 -495 315 l 5
 -552 452 l 5
 220 778 l 5
 -552 1104 l 5
645 0 m 5
 -645 0 l 5
 -645 145 l 5
 645 145 l 5
 645 0 l 5
EndSplineSet
Validated: 1
PickledDataWithLists: "(dp0
Vcom.schriftgestaltung.Glyphs.lastChange
p1
V2019/11/18 23:05:38
p2
s."
EndChar

StartChar: greater_equal_greater.liga
Encoding: 46 -1 46
GlifName: greater_equal_greater.liga
Width: 1126
Flags: W
HStem: 298 147<-1101 175> 646 147<-1102 171>
LayerCount: 2
Fore
SplineSet
-1761 995 m 1
 -1653 1106 l 1
 -1278 793 l 1
 171 793 l 1
 -73 995 l 1
 35 1106 l 1
 707 545 l 1
 35 -16 l 1
 -73 94 l 1
 175 298 l 1
 -1277 298 l 1
 -1653 -16 l 1
 -1761 94 l 1
 -1216 543 l 1
 -1761 995 l 1
353 445 m 1
 472 543 l 1
 348 646 l 1
 -1102 646 l 1
 -981 545 l 1
 -1101 445 l 1
 353 445 l 1
EndSplineSet
PickledDataWithLists: "(dp0
Vcom.schriftgestaltung.Glyphs.lastChange
p1
V2019/11/18 23:05:38
p2
s."
EndChar

StartChar: greater_greater.liga
Encoding: 47 -1 47
GlifName: greater_greater.liga
Width: 1126
Flags: W
LayerCount: 2
Fore
SplineSet
-125 985 m 1
 -37 1106 l 1
 985 545 l 1
 -37 -16 l 1
 -125 104 l 1
 670 543 l 1
 -125 985 l 1
-969 985 m 1
 -881 1106 l 1
 141 545 l 1
 -881 -16 l 1
 -969 104 l 1
 -174 543 l 1
 -969 985 l 1
EndSplineSet
PickledDataWithLists: "(dp0
Vcom.schriftgestaltung.Glyphs.lastChange
p1
V2019/11/18 23:05:38
p2
s."
EndChar

StartChar: greater_greater_equal.liga
Encoding: 48 -1 48
GlifName: greater_greater_equal.liga
Width: 1126
Flags: W
HStem: 298 147<-538 711> 646 147<-539 711>
LayerCount: 2
Fore
SplineSet
-1761 995 m 1
 -1653 1106 l 1
 -981 545 l 1
 -1653 -16 l 1
 -1761 94 l 1
 -1216 543 l 1
 -1761 995 l 1
-1198 995 m 1
 -1090 1106 l 1
 -715 793 l 1
 711 793 l 1
 711 646 l 1
 -539 646 l 1
 -418 545 l 1
 -538 445 l 1
 711 445 l 1
 711 298 l 1
 -714 298 l 1
 -1090 -16 l 1
 -1198 94 l 1
 -653 543 l 1
 -1198 995 l 1
EndSplineSet
PickledDataWithLists: "(dp0
Vcom.schriftgestaltung.Glyphs.lastChange
p1
V2019/11/18 23:05:38
p2
s."
EndChar

StartChar: greater_greater_greater.liga
Encoding: 49 -1 49
GlifName: greater_greater_greater.liga
Width: 1126
Flags: W
LayerCount: 2
Fore
SplineSet
-1954 985 m 1
 -1866 1106 l 1
 -844 545 l 1
 -1866 -16 l 1
 -1954 104 l 1
 -1159 543 l 1
 -1954 985 l 1
-266 985 m 1
 -178 1106 l 1
 844 545 l 1
 -178 -16 l 1
 -266 104 l 1
 529 543 l 1
 -266 985 l 1
-1110 985 m 5
 -1022 1106 l 5
 0 545 l 5
 -1022 -16 l 5
 -1110 104 l 5
 -315 543 l 5
 -1110 985 l 5
EndSplineSet
PickledDataWithLists: "(dp0
Vcom.schriftgestaltung.Glyphs.lastChange
p1
V2019/11/18 23:05:38
p2
s."
EndChar

StartChar: greater_greater_hyphen.liga
Encoding: 50 -1 50
GlifName: greater_greater_hyphen.liga
Width: 1126
Flags: HW
HStem: 463 164<-798 862>
LayerCount: 2
Fore
SplineSet
-1761 995 m 1
 -1653 1106 l 1
 -981 545 l 1
 -1653 -16 l 1
 -1761 94 l 1
 -1216 543 l 1
 -1761 995 l 1
-1198 995 m 1
 -1090 1106 l 1
 -516 627 l 1
 580 627 l 5
 580 463 l 5
 -516 463 l 1
 -1090 -16 l 1
 -1198 94 l 1
 -653 543 l 1
 -1198 995 l 1
EndSplineSet
PickledDataWithLists: "(dp0
Vcom.schriftgestaltung.Glyphs.lastChange
p1
V2019/11/18 23:05:38
p2
s."
EndChar

StartChar: greater_hyphen.liga
Encoding: 51 -1 51
GlifName: greater_hyphen.liga
Width: 1126
Flags: W
HStem: 463 164<-94 721>
LayerCount: 2
Fore
SplineSet
-776 995 m 1
 -668 1106 l 1
 -94 627 l 1
 721 627 l 1
 721 463 l 1
 -94 463 l 1
 -668 -16 l 1
 -776 94 l 1
 -231 543 l 1
 -776 995 l 1
EndSplineSet
PickledDataWithLists: "(dp0
Vcom.schriftgestaltung.Glyphs.lastChange
p1
V2019/11/18 23:05:38
p2
s."
EndChar

StartChar: greater_hyphen_greater.liga
Encoding: 52 -1 52
GlifName: greater_hyphen_greater.liga
Width: 1126
Flags: W
HStem: 463 164<-1079 371>
LayerCount: 2
Fore
SplineSet
-1761 995 m 1
 -1653 1106 l 1
 -1079 627 l 1
 371 627 l 1
 -73 995 l 1
 35 1106 l 1
 707 545 l 1
 35 -16 l 1
 -73 94 l 1
 375 463 l 1
 -1079 463 l 1
 -1653 -16 l 1
 -1761 94 l 1
 -1216 543 l 1
 -1761 995 l 1
EndSplineSet
PickledDataWithLists: "(dp0
Vcom.schriftgestaltung.Glyphs.lastChange
p1
V2019/11/18 23:05:38
p2
s."
EndChar

StartChar: hyphen_asciitilde.liga
Encoding: 53 -1 53
GlifName: hyphen_asciitilde.liga
Width: 1126
Flags: W
HStem: 336 158<543.325 728.681> 463 164<-721 23.7641> 565 164<79.1793 308.967>
VStem: 759 160<525.447 689>
LayerCount: 2
Fore
SplineSet
919 689 m 1xb0
 919 676 l 2
 919 481 831 336 637 336 c 0
 558 336 504 365 457 401 c 0
 409 437 372 474 326 508 c 0
 290 534 256 565 201 565 c 0xb0
 159 565 133 548 101 532 c 0
 83 523 29 494 -20 482 c 0
 -90 463 -151 464 -203 463 c 1
 -721 463 l 1
 -721 627 l 1
 -203 627 l 2x50
 -150 627 -60 632 -21 649 c 0
 47 679 114 729 207 729 c 0
 286 729 339 696 388 662 c 0
 436 629 475 597 519 559 c 0
 553 530 588 494 643 494 c 0
 738 494 759 580 759 689 c 1
 919 689 l 1xb0
EndSplineSet
PickledDataWithLists: "(dp0
Vcom.schriftgestaltung.Glyphs.lastChange
p1
V2019/11/18 23:07:02
p2
s."
EndChar

StartChar: hyphen_bar.liga
Encoding: 54 -1 54
GlifName: hyphen_bar.liga
Width: 1126
Flags: W
HStem: 463 164<-721 340>
VStem: 340 164<-410 463 627 1638>
LayerCount: 2
Fore
SplineSet
504 -410 m 1
 340 -410 l 1
 340 463 l 1
 -721 463 l 1
 -721 627 l 1
 340 627 l 1
 340 1638 l 1
 504 1638 l 1
 504 -410 l 1
EndSplineSet
PickledDataWithLists: "(dp0
Vcom.schriftgestaltung.Glyphs.lastChange
p1
V2019/11/18 23:05:38
p2
s."
EndChar

StartChar: hyphen_greater.liga
Encoding: 55 -1 55
GlifName: hyphen_greater.liga
Width: 1126
Flags: W
HStem: 463 164<-721 512>
LayerCount: 2
Fore
SplineSet
68 995 m 1
 176 1106 l 1
 848 545 l 1
 176 -16 l 1
 68 94 l 1
 516 463 l 1
 -721 463 l 1
 -721 627 l 1
 512 627 l 1
 68 995 l 1
EndSplineSet
PickledDataWithLists: "(dp0
Vcom.schriftgestaltung.Glyphs.lastChange
p1
V2019/11/18 23:05:38
p2
s."
EndChar

StartChar: hyphen_greater_greater.liga
Encoding: 56 -1 56
GlifName: hyphen_greater_greater.liga
Width: 1126
Flags: W
HStem: 463 164<-1706 -192>
LayerCount: 2
Fore
SplineSet
-636 995 m 1
 -528 1106 l 1
 144 545 l 1
 -528 -16 l 1
 -636 94 l 1
 -188 463 l 1
 -1706 463 l 1
 -1706 627 l 1
 -192 627 l 1
 -636 995 l 1
-73 995 m 1
 35 1106 l 1
 707 545 l 1
 35 -16 l 1
 -73 94 l 1
 472 543 l 1
 -73 995 l 1
EndSplineSet
PickledDataWithLists: "(dp0
Vcom.schriftgestaltung.Glyphs.lastChange
p1
V2019/11/18 23:05:38
p2
s."
EndChar

StartChar: hyphen_hyphen.liga
Encoding: 57 -1 57
GlifName: hyphen_hyphen.liga
Width: 1126
Flags: W
HStem: 463 164<-721 -123 123 721>
LayerCount: 2
Fore
SplineSet
721 463 m 1
 123 463 l 1
 123 627 l 1
 721 627 l 1
 721 463 l 1
-123 463 m 1
 -721 463 l 1
 -721 627 l 1
 -123 627 l 1
 -123 463 l 1
EndSplineSet
PickledDataWithLists: "(dp0
Vcom.schriftgestaltung.Glyphs.lastChange
p1
V2019/11/18 23:05:38
p2
s."
EndChar

StartChar: hyphen_hyphen_greater.liga
Encoding: 58 -1 58
GlifName: hyphen_hyphen_greater.liga
Width: 1126
Flags: W
HStem: 463 164<-1706 371>
LayerCount: 2
Fore
SplineSet
-73 995 m 1
 35 1106 l 1
 707 545 l 1
 35 -16 l 1
 -73 94 l 1
 375 463 l 1
 -1706 463 l 1
 -1706 627 l 1
 371 627 l 1
 -73 995 l 1
EndSplineSet
PickledDataWithLists: "(dp0
Vcom.schriftgestaltung.Glyphs.lastChange
p1
V2019/11/18 23:05:38
p2
s."
EndChar

StartChar: hyphen_hyphen_hyphen.liga
Encoding: 59 -1 59
GlifName: hyphen_hyphen_hyphen.liga
Width: 1126
Flags: W
HStem: 463 164<-1706 -1108 -862 -264 -18 580>
LayerCount: 2
Fore
SplineSet
580 463 m 1
 -18 463 l 1
 -18 627 l 1
 580 627 l 1
 580 463 l 1
-264 463 m 1
 -862 463 l 1
 -862 627 l 1
 -264 627 l 1
 -264 463 l 1
-1108 463 m 1
 -1706 463 l 1
 -1706 627 l 1
 -1108 627 l 1
 -1108 463 l 1
EndSplineSet
PickledDataWithLists: "(dp0
Vcom.schriftgestaltung.Glyphs.lastChange
p1
V2019/11/18 23:05:38
p2
s."
EndChar

StartChar: hyphen_less.liga
Encoding: 60 -1 60
GlifName: hyphen_less.liga
Width: 1126
Flags: W
HStem: 463 164<-721 94>
LayerCount: 2
Fore
SplineSet
777 94 m 1
 668 -16 l 1
 94 463 l 1
 -721 463 l 1
 -721 627 l 1
 94 627 l 1
 668 1106 l 1
 777 995 l 1
 232 547 l 1
 777 94 l 1
EndSplineSet
PickledDataWithLists: "(dp0
Vcom.schriftgestaltung.Glyphs.lastChange
p1
V2019/11/18 23:05:38
p2
s."
EndChar

StartChar: hyphen_less_less.liga
Encoding: 61 -1 61
GlifName: hyphen_less_less.liga
Width: 1126
Flags: W
HStem: 463 164<-1706 -610>
LayerCount: 2
Fore
SplineSet
73 94 m 1
 -36 -16 l 1
 -610 463 l 1
 -1706 463 l 1
 -1706 627 l 1
 -610 627 l 1
 -36 1106 l 1
 73 995 l 1
 -472 547 l 1
 73 94 l 1
636 94 m 1
 527 -16 l 1
 -145 545 l 1
 527 1106 l 1
 636 995 l 1
 91 547 l 1
 636 94 l 1
EndSplineSet
PickledDataWithLists: "(dp0
Vcom.schriftgestaltung.Glyphs.lastChange
p1
V2019/11/18 23:05:38
p2
s."
EndChar

StartChar: less_asciitilde.liga
Encoding: 62 -1 62
GlifName: less_asciitilde.liga
Width: 1126
Flags: W
HStem: 343 158<541.693 729.681> 448 160<-506.934 -43.4329> 461 163<-510 -235.078 -227.855 -17.2459> 595 158<100.489 304.307>
VStem: 760 160<532.447 696>
LayerCount: 2
Fore
SplineSet
920 696 m 1x98
 920 683 l 2
 920 488 832 343 638 343 c 0
 559 343 505 372 458 408 c 0
 410 444 368 490 326 530 c 0
 294 561 257 595 202 595 c 0x98
 160 595 -5 484 -49 472 c 0
 -110 455 -160 448 -232 448 c 0x48
 -297 448 -405 456 -510 461 c 1
 -68 95 l 1
 -176 -16 l 1
 -848 545 l 1
 -176 1106 l 1
 -68 996 l 1
 -519 624 l 1x28
 -410 619 -304 608 -230 608 c 0x48
 -184 608 -153 610 -112 620 c 0
 -70 630 43 707 84 727 c 0
 120 745 161 753 208 753 c 0
 287 753 341 724 388 688 c 0
 436 652 478 606 520 566 c 0
 552 535 589 501 644 501 c 0
 739 501 760 587 760 696 c 1
 920 696 l 1x98
EndSplineSet
PickledDataWithLists: "(dp0
Vcom.schriftgestaltung.Glyphs.lastChange
p1
V2019/11/18 23:07:02
p2
s."
EndChar

StartChar: less_asciitilde_asciitilde.liga
Encoding: 63 -1 63
GlifName: less_asciitilde_asciitilde.liga
Width: 1126
Flags: HW
HStem: 344 158<-637.615 -420.795 345.553 573.434> 448 166<-1487 -1284.57> 595 159<-1147.48 -914.578 -148.127 70.447>
VStem: 619 159<550.719 696>
LayerCount: 2
Fore
SplineSet
778 696 m 5xb0
 778 482 669 344 454 344 c 4
 239 344 168 505 28 578 c 4
 5 590 -12 596 -38 596 c 4
 -95 596 -138 561 -174 531 c 4
 -248 470 -317 397 -417 362 c 4
 -451 350 -484 344 -526 344 c 4
 -702 344 -789 451 -886 531 c 4
 -924 562 -966 595 -1028 595 c 4xb0
 -1085 595 -1131 559 -1171 538 c 4
 -1250 496 -1307 456 -1407 448 c 4
 -1408.9375696 447.870828693 -1411.14210282 447.808398293 -1413.58558138 447.808398293 c 4
 -1430.05867669 447.808398293 -1457.39182442 450.645856533 -1487 455 c 5
 -1052 94 l 5
 -1161 -16 l 5
 -1833 545 l 5
 -1161 1106 l 5
 -1052 995 l 5
 -1507 621 l 5
 -1473.81322676 617.839354929 -1434.38290522 612.805645371 -1405.4826295 612.805645371 c 4
 -1397.80774405 612.805645371 -1390.8754845 613.160645071 -1385 614 c 4x50
 -1289 627 -1198 754 -1025 754 c 4
 -810 754 -735 593 -595 520 c 4
 -572 508 -555 502 -529 502 c 4
 -473 502 -431 538 -395 567 c 4
 -300 646 -211 754 -38 754 c 4
 177 754 248 593 388 520 c 4
 411 508 435 502 461 502 c 4
 509 502 555 517 576 548 c 4
 597 579 619 628 619 696 c 5
 778 696 l 5xb0
EndSplineSet
PickledDataWithLists: "(dp0
Vcom.schriftgestaltung.Glyphs.lastChange
p1
V2019/11/18 23:07:02
p2
s."
EndChar

StartChar: less_asciitilde_greater.liga
Encoding: 64 -1 64
GlifName: less_asciitilde_greater.liga
Width: 1126
Flags: HW
HStem: 344 158<-443.064 -252.626> 596 158<-870.525 -682.936>
VStem: -1060 160<401 565.522> -225 160<526.649 696>
LayerCount: 2
Fore
SplineSet
-342 502 m 4
 -243 502 -225 584 -225 696 c 5
 -65 696 l 5
 -64.9648798221 693.225505946 -64.9473359775 690.464271231 -64.9473359775 687.716398736 c 4
 -64.9473359775 533.980297658 -119.861369429 422.069315286 -224 370 c 4
 -260 352 -301 344 -348 344 c 4
 -539 344 -602 505 -720 578 c 4
 -740 590 -761 596 -784 596 c 4
 -879 596 -900 510 -900 401 c 5
 -1060 401 l 5
 -1060.13160896 406.165651636 -1060.19718192 411.289083535 -1060.19718192 416.369333994 c 4
 -1060.19718192 565.693479787 -1003.54526483 677.710916465 -902 728 c 4
 -866 746 -825 754 -778 754 c 4
 -587 754 -524 593 -406 520 c 4
 -386 508 -365 502 -342 502 c 4
-860 985 m 5
 -1655 543 l 5
 -860 104 l 5
 -948 -16 l 5
 -1970 545 l 5
 -948 1106 l 5
 -860 985 l 5
-266 985 m 5
 -178 1106 l 5
 844 545 l 5
 -178 -16 l 5
 -266 104 l 5
 529 543 l 5
 -266 985 l 5
EndSplineSet
PickledDataWithLists: "(dp0
Vcom.schriftgestaltung.Glyphs.lastChange
p1
V2019/11/18 23:05:38
p2
s."
EndChar

StartChar: less_asterisk.liga
Encoding: 65 -1 65
GlifName: less_asterisk.liga
Width: 1126
Flags: HW
LayerCount: 2
Fore
SplineSet
811 394 m 5
 743 275 l 5
 462 461 l 5
 485 119 l 5
 342 119 l 5
 364 461 l 5
 77 275 l 5
 14 392 l 5
 321 543 l 5
 14 697 l 5
 83 814 l 5
 366 625 l 5
 342 967 l 5
 485 967 l 5
 460 625 l 5
 743 816 l 5
 813 693 l 5
 505 541 l 5
 811 394 l 5
143 985 m 5
 -652 543 l 5
 143 104 l 5
 55 -16 l 5
 -967 545 l 5
 55 1106 l 5
 143 985 l 5
EndSplineSet
PickledDataWithLists: "(dp0
Vcom.schriftgestaltung.Glyphs.lastChange
p1
V2019/11/18 23:05:38
p2
s."
EndChar

StartChar: less_asterisk_greater.liga
Encoding: 66 -1 66
GlifName: less_asterisk_greater.liga
Width: 1126
Flags: W
LayerCount: 2
Fore
SplineSet
-174 394 m 5
 -242 275 l 5
 -523 461 l 5
 -500 119 l 5
 -643 119 l 5
 -621 461 l 5
 -908 275 l 5
 -971 392 l 5
 -664 543 l 5
 -971 697 l 5
 -902 814 l 5
 -619 625 l 5
 -643 967 l 5
 -500 967 l 5
 -525 625 l 5
 -242 816 l 5
 -172 693 l 5
 -480 541 l 5
 -174 394 l 5
-860 985 m 5
 -1655 543 l 5
 -860 104 l 5
 -948 -16 l 5
 -1970 545 l 5
 -948 1106 l 5
 -860 985 l 5
-266 985 m 5
 -178 1106 l 5
 844 545 l 5
 -178 -16 l 5
 -266 104 l 5
 529 543 l 5
 -266 985 l 5
EndSplineSet
PickledDataWithLists: "(dp0
Vcom.schriftgestaltung.Glyphs.lastChange
p1
V2019/11/18 23:05:38
p2
s."
EndChar

StartChar: less_bar.liga
Encoding: 67 -1 67
GlifName: less_bar.liga
Width: 1126
Flags: W
VStem: 340 164<-14 1102>
LayerCount: 2
Fore
SplineSet
504 -272 m 1
 -985 545 l 1
 504 1364 l 1
 504 -272 l 1
340 -14 m 1
 340 1102 l 1
 -670 543 l 1
 340 -14 l 1
EndSplineSet
PickledDataWithLists: "(dp0
Vcom.schriftgestaltung.Glyphs.lastChange
p1
V2019/11/18 23:05:38
p2
s."
EndChar

StartChar: less_bar_bar.liga
Encoding: 68 -1 68
GlifName: less_bar_bar.liga
Width: 1126
Flags: W
VStem: -645 164<-14 1102> 199 164<-272 1364>
LayerCount: 2
Fore
SplineSet
-481 -272 m 1
 -1970 545 l 1
 -481 1364 l 1
 -481 -272 l 1
-645 -14 m 1
 -645 1102 l 1
 -1655 543 l 1
 -645 -14 l 1
199 -272 m 1
 199 1364 l 1
 363 1364 l 1
 363 -272 l 1
 199 -272 l 1
EndSplineSet
PickledDataWithLists: "(dp0
Vcom.schriftgestaltung.Glyphs.lastChange
p1
V2019/11/18 23:05:38
p2
s."
EndChar

StartChar: less_bar_bar_bar.liga
Encoding: 69 -1 69
GlifName: less_bar_bar_bar.liga
Width: 1126
Flags: W
VStem: -1630 164<-14 1102> -786 164<-272 1364> 58 164<-272 1364>
CounterMasks: 1 e0
LayerCount: 2
Fore
SplineSet
-786 -272 m 1
 -786 1364 l 1
 -622 1364 l 1
 -622 -272 l 1
 -786 -272 l 1
58 -272 m 1
 58 1364 l 1
 222 1364 l 1
 222 -272 l 1
 58 -272 l 1
-1466 -272 m 1
 -2955 545 l 1
 -1466 1364 l 1
 -1466 -272 l 1
-1630 -14 m 1
 -1630 1102 l 1
 -2640 543 l 1
 -1630 -14 l 1
EndSplineSet
PickledDataWithLists: "(dp0
Vcom.schriftgestaltung.Glyphs.lastChange
p1
V2019/11/18 23:05:38
p2
s."
EndChar

StartChar: less_bar_greater.liga
Encoding: 70 -1 70
GlifName: less_bar_greater.liga
Width: 1126
Flags: W
VStem: -645 164<-410 1638>
LayerCount: 2
Fore
SplineSet
-481 -410 m 1
 -645 -410 l 1
 -645 1638 l 1
 -481 1638 l 1
 -481 -410 l 1
-860 985 m 1
 -1655 543 l 1
 -860 104 l 1
 -948 -16 l 1
 -1970 545 l 1
 -948 1106 l 1
 -860 985 l 1
-266 985 m 1
 -178 1106 l 1
 844 545 l 1
 -178 -16 l 1
 -266 104 l 1
 529 543 l 1
 -266 985 l 1
EndSplineSet
PickledDataWithLists: "(dp0
Vcom.schriftgestaltung.Glyphs.lastChange
p1
V2019/11/18 23:05:38
p2
s."
EndChar

StartChar: less_colon.liga
Encoding: 71 -1 71
GlifName: less_colon.liga
Width: 1126
Flags: W
HStem: -18 307<316.314 529.003> 715 307<315.087 529.003>
VStem: 269 307<25.875 241.904 758.875 975.165>
LayerCount: 2
Fore
SplineSet
422 1022 m 0
 493 1022 542 977 564 927 c 0
 572 908 576 889 576 868 c 0
 576 781 509 715 422 715 c 0
 334 715 269 781 269 868 c 0
 269 939 312 987 362 1010 c 0
 380 1018 401 1022 422 1022 c 0
422 289 m 0
 493 289 542 244 564 194 c 0
 572 175 576 156 576 135 c 0
 576 48 509 -18 422 -18 c 0
 334 -18 269 48 269 135 c 0
 269 206 312 253 362 276 c 0
 380 284 401 289 422 289 c 0
143 985 m 1
 -652 543 l 1
 143 104 l 1
 55 -16 l 1
 -967 545 l 1
 55 1106 l 1
 143 985 l 1
EndSplineSet
PickledDataWithLists: "(dp0
Vcom.schriftgestaltung.Glyphs.lastChange
p1
V2019/11/18 23:05:38
p2
s."
EndChar

StartChar: less_dollar.liga
Encoding: 72 -1 72
GlifName: less_dollar.liga
Width: 1126
Flags: W
HStem: 2 154<418 594.013>
VStem: -20 186<865.099 1088.46> 676 187<229.517 460.925>
LayerCount: 2
Fore
SplineSet
418 156 m 1
 565 156 676 213 676 352 c 0
 676 439 619 480 559 511 c 0
 533 524 504 538 469 551 c 1
 418 156 l 1
406 1155 m 1
 274 1155 166 1099 166 975 c 0
 166 929 181 892 213 862 c 0
 245 832 292 805 355 780 c 1
 406 1155 l 1
570 1300 m 1
 638 1293 712 1283 772 1268 c 1
 772 1114 l 1
 703 1132 627 1153 551 1153 c 1
 494 725 l 1
 628 673 764 616 831 498 c 0
 853 460 863 415 863 362 c 0
 863 173 737 76 587 32 c 0
 530 15 467 2 398 2 c 1
 365 -236 l 1
 219 -236 l 1
 252 2 l 1
 -848 545 l 1
 -176 1106 l 1
 -67 995 l 1
 -551 596 l 1
 276 180 l 1
 332 606 l 1
 202 656 76 710 11 825 c 0
 -10 862 -20 905 -20 956 c 0
 -20 1124 96 1219 226 1268 c 0
 282 1289 349 1305 426 1305 c 1
 451 1495 l 1
 596 1495 l 1
 570 1300 l 1
EndSplineSet
PickledDataWithLists: "(dp0
Vcom.schriftgestaltung.Glyphs.lastChange
p1
V2019/11/18 23:07:02
p2
s."
EndChar

StartChar: less_dollar_greater.liga
Encoding: 73 -1 73
GlifName: less_dollar_greater.liga
Width: 1126
Flags: W
HStem: 2 154<-567 -390.987> 1155 150<-748.371 -579>
VStem: -1005 186<865.099 1088.46> -309 187<229.517 460.925>
LayerCount: 2
Fore
SplineSet
-579 1155 m 1
 -711 1155 -819 1099 -819 975 c 0
 -819 929 -804 892 -772 862 c 0
 -740 832 -693 805 -630 780 c 1
 -579 1155 l 1
-567 156 m 1
 -420 156 -309 213 -309 352 c 0
 -309 439 -366 480 -426 511 c 0
 -452 524 -481 538 -516 551 c 1
 -567 156 l 1
-437 1132 m 1
 -491 725 l 1
 -357 673 -221 616 -154 498 c 0
 -132 460 -122 415 -122 362 c 0
 -122 173 -248 76 -398 32 c 0
 -455 15 -518 2 -587 2 c 1
 -620 -236 l 1
 -766 -236 l 1
 -733 2 l 1
 -1833 545 l 1
 -1161 1106 l 1
 -1052 995 l 1
 -1536 596 l 1
 -712 174 l 1
 -653 606 l 1
 -783 656 -909 710 -974 825 c 0
 -995 862 -1005 905 -1005 956 c 0
 -1005 1124 -889 1219 -759 1268 c 0
 -703 1289 -636 1305 -559 1305 c 1
 -534 1495 l 1
 -389 1495 l 1
 -415 1300 l 1
 707 545 l 1
 35 -16 l 1
 -73 94 l 1
 454 527 l 1
 -437 1132 l 1
EndSplineSet
PickledDataWithLists: "(dp0
Vcom.schriftgestaltung.Glyphs.lastChange
p1
V2019/11/18 23:05:38
p2
s."
EndChar

StartChar: less_equal.liga
Encoding: 74 -1 74
GlifName: less_equal.liga
Width: 1126
Flags: HW
LayerCount: 2
Fore
SplineSet
552 1104 m 1
 495 1241 l 1
 -600 778 l 1
 495 315 l 1
 552 452 l 1
 -220 778 l 1
 552 1104 l 1
645 0 m 1
 -645 0 l 1
 -645 145 l 1
 645 145 l 1
 645 0 l 1
EndSplineSet
PickledDataWithLists: "(dp0
Vcom.schriftgestaltung.Glyphs.lastChange
p1
V2019/11/18 23:07:02
p2
s."
EndChar

StartChar: less_equal_equal.liga
Encoding: 75 -1 75
GlifName: less_equal_equal.liga
Width: 1126
Flags: W
HStem: 298 147<-1301 711> 646 147<-1297 711>
LayerCount: 2
Fore
SplineSet
-1053 995 m 1
 -1297 793 l 1
 711 793 l 1
 711 646 l 1
 -1474 646 l 1
 -1598 543 l 1
 -1479 445 l 1
 711 445 l 1
 711 298 l 1
 -1301 298 l 1
 -1053 94 l 1
 -1161 -16 l 1
 -1833 545 l 1
 -1161 1106 l 1
 -1053 995 l 1
EndSplineSet
PickledDataWithLists: "(dp0
Vcom.schriftgestaltung.Glyphs.lastChange
p1
V2019/11/18 23:05:38
p2
s."
EndChar

StartChar: less_equal_equal_greater.liga
Encoding: 76 -1 76
GlifName: less_equal_equal_greater.liga
Width: 1126
Flags: W
HStem: 298 147<-2286 34> 646 147<-2282 30>
LayerCount: 2
Fore
SplineSet
-2038 995 m 1
 -2282 793 l 1
 30 793 l 1
 -214 995 l 1
 -106 1106 l 1
 566 545 l 1
 -106 -16 l 1
 -214 94 l 1
 34 298 l 1
 -2286 298 l 1
 -2038 94 l 1
 -2146 -16 l 1
 -2818 545 l 1
 -2146 1106 l 1
 -2038 995 l 1
207 646 m 1
 -2459 646 l 1
 -2583 543 l 1
 -2464 445 l 1
 212 445 l 1
 331 543 l 1
 207 646 l 1
EndSplineSet
PickledDataWithLists: "(dp0
Vcom.schriftgestaltung.Glyphs.lastChange
p1
V2019/11/18 23:05:38
p2
s."
EndChar

StartChar: less_equal_greater.liga
Encoding: 77 -1 77
GlifName: less_equal_greater.liga
Width: 1126
Flags: W
HStem: 298 147<-1297 175> 646 147<-1298 171>
LayerCount: 2
Fore
SplineSet
-73 995 m 1
 35 1106 l 1
 707 545 l 1
 35 -16 l 1
 -73 94 l 1
 175 298 l 1
 -1297 298 l 1
 -1052 94 l 1
 -1161 -16 l 1
 -1833 545 l 1
 -1161 1106 l 1
 -1052 995 l 1
 -1298 793 l 1
 171 793 l 1
 -73 995 l 1
-1474 445 m 1
 353 445 l 1
 472 543 l 1
 348 646 l 1
 -1477 646 l 1
 -1597 547 l 1
 -1474 445 l 1
EndSplineSet
PickledDataWithLists: "(dp0
Vcom.schriftgestaltung.Glyphs.lastChange
p1
V2019/11/18 23:05:38
p2
s."
EndChar

StartChar: less_equal_less.liga
Encoding: 78 -1 78
GlifName: less_equal_less.liga
Width: 1126
Flags: W
HStem: 298 147<-1297 -25> 646 147<-1298 -24>
LayerCount: 2
Fore
SplineSet
-1052 94 m 1
 -1161 -16 l 1
 -1833 545 l 1
 -1161 1106 l 1
 -1052 995 l 1
 -1298 793 l 1
 152 793 l 1
 527 1106 l 1
 636 995 l 1
 91 547 l 1
 636 94 l 1
 527 -16 l 1
 151 298 l 1
 -1297 298 l 1
 -1052 94 l 1
-24 646 m 1
 -1477 646 l 1
 -1597 547 l 1
 -1474 445 l 1
 -25 445 l 1
 -145 545 l 1
 -24 646 l 1
EndSplineSet
PickledDataWithLists: "(dp0
Vcom.schriftgestaltung.Glyphs.lastChange
p1
V2019/11/18 23:05:38
p2
s."
EndChar

StartChar: less_exclam_hyphen_hyphen.liga
Encoding: 79 -1 79
GlifName: less_exclam_hyphen_hyphen.liga
Width: 1126
Flags: W
HStem: -18 264<-1651.76 -1449.71> 463 164<-2622 -1938 -1164 439>
VStem: -1683 264<12.7149 214.425> -1656 211<920.797 1413> -1626 154<383 875.203>
LayerCount: 2
Fore
SplineSet
-2178 94 m 1xc0
 -2287 -18 l 1
 -2959 545 l 1
 -2287 1106 l 1
 -2178 995 l 1
 -2626 627 l 1
 -1938 627 l 1
 -1938 463 l 1
 -2622 463 l 1
 -2178 94 l 1xc0
-1419 113 m 0xe0
 -1419 37 -1474 -18 -1550 -18 c 0
 -1627 -18 -1683 37 -1683 113 c 0
 -1683 190 -1627 246 -1550 246 c 0
 -1474 246 -1419 189 -1419 113 c 0xe0
-1445 1413 m 1xd0
 -1472 383 l 1
 -1626 383 l 1xc8
 -1656 1413 l 1
 -1445 1413 l 1xd0
439 463 m 1
 -1164 463 l 1
 -1164 627 l 1
 439 627 l 1
 439 463 l 1
EndSplineSet
PickledDataWithLists: "(dp0
Vcom.schriftgestaltung.Glyphs.lastChange
p1
V2019/11/18 23:05:38
p2
s."
EndChar

StartChar: less_greater.liga
Encoding: 80 -1 80
GlifName: less_greater.liga
Width: 1126
Flags: HW
LayerCount: 2
Fore
SplineSet
990 545 m 1
 -0 0 l 1
 -990 545 l 1
 0 1088 l 1
 990 545 l 1
0 170 m 1
 675 543 l 1
 -0 918 l 1
 -675 543 l 1
 0 170 l 1
EndSplineSet
PickledDataWithLists: "(dp0
Vcom.schriftgestaltung.Glyphs.lastChange
p1
V2019/11/18 23:05:38
p2
s."
EndChar

StartChar: less_hyphen.liga
Encoding: 81 -1 81
GlifName: less_hyphen.liga
Width: 1126
Flags: W
HStem: 463 164<-511 721>
LayerCount: 2
Fore
SplineSet
-67 94 m 1
 -176 -16 l 1
 -848 545 l 1
 -176 1106 l 1
 -67 995 l 1
 -515 627 l 1
 721 627 l 1
 721 463 l 1
 -511 463 l 1
 -67 94 l 1
EndSplineSet
PickledDataWithLists: "(dp0
Vcom.schriftgestaltung.Glyphs.lastChange
p1
V2019/11/18 23:05:38
p2
s."
EndChar

StartChar: less_hyphen_greater.liga
Encoding: 82 -1 82
GlifName: less_hyphen_greater.liga
Width: 1126
Flags: HW
HStem: 463 164<-1496 371>
LayerCount: 2
Fore
SplineSet
-1052 94 m 1
 -1161 -16 l 1
 -1833 545 l 1
 -1544 786.263392857 l 4
 -1161 1106 l 1
 -1052 995 l 1
 -1500 627 l 1
 371 627 l 1
 -73 995 l 1
 35 1106 l 1
 707 545 l 1
 35 -16 l 1
 -73 94 l 1
 375 463 l 1
 -1496 463 l 1
 -1052 94 l 1
EndSplineSet
PickledDataWithLists: "(dp0
Vcom.schriftgestaltung.Glyphs.lastChange
p1
V2019/11/18 23:05:38
p2
s."
EndChar

StartChar: less_hyphen_hyphen.liga
Encoding: 83 -1 83
GlifName: less_hyphen_hyphen.liga
Width: 1126
Flags: HW
HStem: 463 164<-1496 580>
LayerCount: 2
Fore
SplineSet
-1052 94 m 1
 -1161 -16 l 1
 -1833 545 l 1
 -1161 1106 l 1
 -1052 995 l 1
 -1500 627 l 1
 580 627 l 5
 580 463 l 5
 -1496 463 l 1
 -1052 94 l 1
EndSplineSet
PickledDataWithLists: "(dp0
Vcom.schriftgestaltung.Glyphs.lastChange
p1
V2019/11/18 23:05:38
p2
s."
EndChar

StartChar: less_hyphen_less.liga
Encoding: 84 -1 84
GlifName: less_hyphen_less.liga
Width: 1126
Flags: W
HStem: 463 164<-1496 -47>
LayerCount: 2
Fore
SplineSet
-1052 94 m 1
 -1161 -16 l 1
 -1833 545 l 1
 -1161 1106 l 1
 -1052 995 l 1
 -1500 627 l 1
 -47 627 l 1
 527 1106 l 1
 636 995 l 1
 91 547 l 1
 636 94 l 1
 527 -16 l 1
 -47 463 l 1
 -1496 463 l 1
 -1052 94 l 1
EndSplineSet
PickledDataWithLists: "(dp0
Vcom.schriftgestaltung.Glyphs.lastChange
p1
V2019/11/18 23:05:38
p2
s."
EndChar

StartChar: less_less.liga
Encoding: 85 -1 85
GlifName: less_less.liga
Width: 1126
Flags: W
LayerCount: 2
Fore
SplineSet
125 985 m 1
 -670 543 l 1
 125 104 l 1
 37 -16 l 1
 -985 545 l 1
 37 1106 l 1
 125 985 l 1
969 985 m 1
 174 543 l 1
 969 104 l 1
 881 -16 l 1
 -141 545 l 1
 881 1106 l 1
 969 985 l 1
EndSplineSet
PickledDataWithLists: "(dp0
Vcom.schriftgestaltung.Glyphs.lastChange
p1
V2019/11/18 23:05:38
p2
s."
EndChar

StartChar: less_less_equal.liga
Encoding: 86 -1 86
GlifName: less_less_equal.liga
Width: 1126
Flags: W
HStem: 298 147<-738 711> 646 147<-734 711>
LayerCount: 2
Fore
SplineSet
-490 995 m 1
 -734 793 l 1
 711 793 l 1
 711 646 l 1
 -911 646 l 1
 -1035 543 l 1
 -916 445 l 1
 711 445 l 1
 711 298 l 1
 -738 298 l 1
 -490 94 l 1
 -598 -16 l 1
 -1270 545 l 1
 -598 1106 l 1
 -490 995 l 1
-1053 995 m 1
 -1598 543 l 1
 -1053 94 l 1
 -1161 -16 l 1
 -1833 545 l 1
 -1161 1106 l 1
 -1053 995 l 1
EndSplineSet
PickledDataWithLists: "(dp0
Vcom.schriftgestaltung.Glyphs.lastChange
p1
V2019/11/18 23:05:38
p2
s."
EndChar

StartChar: less_less_hyphen.liga
Encoding: 87 -1 87
GlifName: less_less_hyphen.liga
Width: 1126
Flags: W
HStem: 463 164<-934 580>
LayerCount: 2
Fore
SplineSet
-1053 995 m 1
 -1598 543 l 1
 -1053 94 l 1
 -1161 -16 l 1
 -1833 545 l 1
 -1161 1106 l 1
 -1053 995 l 1
-934 627 m 1
 580 627 l 1
 580 463 l 1
 -938 463 l 1
 -490 94 l 1
 -598 -16 l 1
 -1270 545 l 1
 -598 1106 l 1
 -490 995 l 1
 -934 627 l 1
EndSplineSet
PickledDataWithLists: "(dp0
Vcom.schriftgestaltung.Glyphs.lastChange
p1
V2019/11/18 23:05:38
p2
s."
EndChar

StartChar: less_less_less.liga
Encoding: 88 -1 88
GlifName: less_less_less.liga
Width: 1126
Flags: HW
LayerCount: 2
Fore
SplineSet
828 985 m 1
 33 543 l 1
 828 104 l 1
 740 -16 l 1
 -282 545 l 1
 740 1106 l 1
 828 985 l 1
-16 985 m 1
 -811 543 l 1
 -16 104 l 1
 -104 -16 l 1
 -1126 545 l 1
 -104 1106 l 1
 -16 985 l 1
-860 985 m 1
 -1655 543 l 1
 -860 104 l 1
 -948 -16 l 1
 -1970 545 l 1
 -948 1106 l 1
 -860 985 l 1
EndSplineSet
PickledDataWithLists: "(dp0
Vcom.schriftgestaltung.Glyphs.lastChange
p1
V2019/11/18 23:05:38
p2
s."
EndChar

StartChar: less_plus.liga
Encoding: 89 -1 89
GlifName: less_plus.liga
Width: 1126
Flags: W
HStem: 469 152<-57 336 508 901>
VStem: 336 172<61 469 621 1026>
LayerCount: 2
Fore
SplineSet
901 469 m 1
 508 469 l 1
 508 61 l 1
 336 61 l 1
 336 469 l 1
 -57 469 l 1
 -57 621 l 1
 336 621 l 1
 336 1026 l 1
 508 1026 l 1
 508 621 l 1
 901 621 l 1
 901 469 l 1
143 985 m 1
 -652 543 l 1
 143 104 l 1
 55 -16 l 1
 -967 545 l 1
 55 1106 l 1
 143 985 l 1
EndSplineSet
PickledDataWithLists: "(dp0
Vcom.schriftgestaltung.Glyphs.lastChange
p1
V2019/11/18 23:05:38
p2
s."
EndChar

StartChar: less_plus_greater.liga
Encoding: 90 -1 90
GlifName: less_plus_greater.liga
Width: 1126
Flags: W
HStem: 469 152<-1042 -649 -477 -84>
VStem: -649 172<61 469 621 1026>
LayerCount: 2
Fore
SplineSet
-84 469 m 1
 -477 469 l 1
 -477 61 l 1
 -649 61 l 1
 -649 469 l 1
 -1042 469 l 1
 -1042 621 l 1
 -649 621 l 1
 -649 1026 l 1
 -477 1026 l 1
 -477 621 l 1
 -84 621 l 1
 -84 469 l 1
-860 985 m 1
 -1655 543 l 1
 -860 104 l 1
 -948 -16 l 1
 -1970 545 l 1
 -948 1106 l 1
 -860 985 l 1
-266 985 m 1
 -178 1106 l 1
 844 545 l 1
 -178 -16 l 1
 -266 104 l 1
 529 543 l 1
 -266 985 l 1
EndSplineSet
PickledDataWithLists: "(dp0
Vcom.schriftgestaltung.Glyphs.lastChange
p1
V2019/11/18 23:05:38
p2
s."
EndChar

StartChar: less_slash.liga
Encoding: 91 -1 91
GlifName: less_slash.liga
Width: 1126
Flags: W
LayerCount: 2
Fore
SplineSet
826 1413 m 1
 140 -215 l 1
 -26 -215 l 1
 -848 545 l 1
 -176 1106 l 1
 -67 995 l 1
 -595 558 l 1
 40 -56 l 1
 660 1413 l 1
 826 1413 l 1
EndSplineSet
PickledDataWithLists: "(dp0
Vcom.schriftgestaltung.Glyphs.lastChange
p1
V2019/11/18 23:05:38
p2
s."
EndChar

StartChar: less_slash_greater.liga
Encoding: 93 -1 93
GlifName: less_slash_greater.liga
Width: 1126
Flags: W
LayerCount: 2
Fore
SplineSet
-230 1246 m 1
 -845 -215 l 1
 -1011 -215 l 1
 -1833 545 l 1
 -1161 1106 l 1
 -1052 995 l 1
 -1580 558 l 1
 -938 -42 l 1
 -325 1413 l 1
 -159 1413 l 1
 707 545 l 1
 35 -16 l 1
 -73 94 l 1
 466 538 l 1
 -230 1246 l 1
EndSplineSet
PickledDataWithLists: "(dp0
Vcom.schriftgestaltung.Glyphs.lastChange
p1
V2019/11/18 23:05:38
p2
s."
EndChar

StartChar: num_num_num.liga
Encoding: 94 -1 94
GlifName: num_num_num.liga
Width: 1126
Flags: W
HStem: 0 21G<-1715 -1564.98 -1312 -1161.98 -907 -756.984 -504 -353.984 -99 51.0163 304 454.016> 367 130<-1891 -1678 -1517 -1275 -1114 -870 -709 -467 -306 -62 99 341 502 712> 847 130<-1840 -1629 -1469 -1226 -1066 -821 -661 -418 -258 -13 147 390 550 765>
LayerCount: 2
Fore
SplineSet
-1261 497 m 1
 -1226 847 l 1
 -1482 847 l 1
 -1517 497 l 1
 -1261 497 l 1
-453 497 m 1
 -418 847 l 1
 -674 847 l 1
 -709 497 l 1
 -453 497 l 1
355 497 m 1
 390 847 l 1
 134 847 l 1
 99 497 l 1
 355 497 l 1
712 367 m 1
 489 367 l 1
 452 0 l 1
 304 0 l 1
 341 367 l 1
 86 367 l 1
 49 0 l 1
 -99 0 l 1
 -62 367 l 1
 -319 367 l 1
 -356 0 l 1
 -504 0 l 1
 -467 367 l 1
 -722 367 l 1
 -759 0 l 1
 -907 0 l 1
 -870 367 l 1
 -1127 367 l 1
 -1164 0 l 1
 -1312 0 l 1
 -1275 367 l 1
 -1530 367 l 1
 -1567 0 l 1
 -1715 0 l 1
 -1678 367 l 1
 -1891 367 l 1
 -1891 497 l 1
 -1665 497 l 1
 -1629 847 l 1
 -1840 847 l 1
 -1840 977 l 1
 -1616 977 l 1
 -1582 1307 l 1
 -1436 1307 l 1
 -1469 977 l 1
 -1213 977 l 1
 -1179 1307 l 1
 -1031 1307 l 1
 -1066 977 l 1
 -808 977 l 1
 -774 1307 l 1
 -628 1307 l 1
 -661 977 l 1
 -405 977 l 1
 -371 1307 l 1
 -223 1307 l 1
 -258 977 l 1
 0 977 l 1
 34 1307 l 1
 180 1307 l 1
 147 977 l 1
 403 977 l 1
 437 1307 l 1
 585 1307 l 1
 550 977 l 1
 765 977 l 1
 765 847 l 1
 537 847 l 1
 502 497 l 1
 712 497 l 1
 712 367 l 1
-821 847 m 1
 -1079 847 l 1
 -1114 497 l 1
 -857 497 l 1
 -821 847 l 1
-13 847 m 1
 -271 847 l 1
 -306 497 l 1
 -49 497 l 1
 -13 847 l 1
EndSplineSet
PickledDataWithLists: "(dp0
Vcom.schriftgestaltung.Glyphs.lastChange
p1
V2019/11/18 23:05:38
p2
s."
EndChar

StartChar: num_num_num_num.liga
Encoding: 95 -1 95
GlifName: num_num_num_num.liga
Width: 1126
Flags: W
HStem: 0 21G<-2682 -2531.98 -2279 -2128.98 -1874 -1723.98 -1471 -1320.98 -1066 -915.984 -663 -512.984 -258 -107.984 145 295.016> 367 130<-2858 -2645 -2484 -2242 -2081 -1837 -1676 -1434 -1273 -1029 -868 -626 -465 -221 -60 182 343 553> 847 130<-2807 -2596 -2436 -2193 -2033 -1788 -1628 -1385 -1225 -980 -820 -577 -417 -172 -12 231 391 606>
LayerCount: 2
Fore
SplineSet
-2228 497 m 1
 -2193 847 l 1
 -2449 847 l 1
 -2484 497 l 1
 -2228 497 l 1
-1420 497 m 1
 -1385 847 l 1
 -1641 847 l 1
 -1676 497 l 1
 -1420 497 l 1
196 497 m 1
 231 847 l 1
 -25 847 l 1
 -60 497 l 1
 196 497 l 1
553 367 m 1
 330 367 l 1
 293 0 l 1
 145 0 l 1
 182 367 l 1
 -73 367 l 1
 -110 0 l 1
 -258 0 l 1
 -221 367 l 1
 -478 367 l 1
 -515 0 l 1
 -663 0 l 1
 -626 367 l 1
 -881 367 l 1
 -918 0 l 1
 -1066 0 l 1
 -1029 367 l 1
 -1286 367 l 1
 -1323 0 l 1
 -1471 0 l 1
 -1434 367 l 1
 -1689 367 l 1
 -1726 0 l 1
 -1874 0 l 1
 -1837 367 l 1
 -2094 367 l 1
 -2131 0 l 1
 -2279 0 l 1
 -2242 367 l 1
 -2497 367 l 1
 -2534 0 l 1
 -2682 0 l 1
 -2645 367 l 1
 -2858 367 l 1
 -2858 497 l 1
 -2632 497 l 1
 -2596 847 l 1
 -2807 847 l 1
 -2807 977 l 1
 -2583 977 l 1
 -2549 1307 l 1
 -2403 1307 l 1
 -2436 977 l 1
 -2180 977 l 1
 -2146 1307 l 1
 -1998 1307 l 1
 -2033 977 l 1
 -1775 977 l 1
 -1741 1307 l 1
 -1595 1307 l 1
 -1628 977 l 1
 -1372 977 l 1
 -1338 1307 l 1
 -1190 1307 l 1
 -1225 977 l 1
 -967 977 l 1
 -933 1307 l 1
 -787 1307 l 1
 -820 977 l 1
 -564 977 l 1
 -530 1307 l 1
 -382 1307 l 1
 -417 977 l 1
 -159 977 l 1
 -125 1307 l 1
 21 1307 l 1
 -12 977 l 1
 244 977 l 1
 278 1307 l 1
 426 1307 l 1
 391 977 l 1
 606 977 l 1
 606 847 l 1
 378 847 l 1
 343 497 l 1
 553 497 l 1
 553 367 l 1
-612 497 m 1
 -577 847 l 1
 -833 847 l 1
 -868 497 l 1
 -612 497 l 1
-1788 847 m 1
 -2046 847 l 1
 -2081 497 l 1
 -1824 497 l 1
 -1788 847 l 1
-465 497 m 1
 -208 497 l 1
 -172 847 l 1
 -430 847 l 1
 -465 497 l 1
-980 847 m 1
 -1238 847 l 1
 -1273 497 l 1
 -1016 497 l 1
 -980 847 l 1
EndSplineSet
PickledDataWithLists: "(dp0
Vcom.schriftgestaltung.Glyphs.lastChange
p1
V2019/11/18 23:05:38
p2
s."
EndChar

StartChar: num_under_parenleft.liga
Encoding: 96 -1 96
GlifName: num_under_parenleft.liga
Width: 1126
Flags: W
HStem: -410 144<-1226 330> 0 21G<-1751 -1600.98> 367 130<-1927 -1714 -1553 -1311 -1150 -940> 847 130<-1876 -1665 -1505 -1262 -1102 -887>
VStem: 18 178<235.99 837.896>
LayerCount: 2
Fore
SplineSet
-1297 497 m 1
 -1262 847 l 1
 -1518 847 l 1
 -1553 497 l 1
 -1297 497 l 1
-940 367 m 1
 -1163 367 l 1
 -1226 -266 l 1
 330 -266 l 1
 122 -23 18 240 18 524 c 0
 18 715 58 864 122 1007 c 0
 205 1193 333 1350 483 1489 c 1
 584 1386 l 1
 325 1131 196 848 196 537 c 0
 196 382 229 234 294 91 c 0
 359 -52 456 -186 584 -313 c 1
 468 -410 l 1
 -1388 -410 l 1
 -1311 367 l 1
 -1566 367 l 1
 -1603 0 l 1
 -1751 0 l 1
 -1714 367 l 1
 -1927 367 l 1
 -1927 497 l 1
 -1701 497 l 1
 -1665 847 l 1
 -1876 847 l 1
 -1876 977 l 1
 -1652 977 l 1
 -1618 1307 l 1
 -1472 1307 l 1
 -1505 977 l 1
 -1249 977 l 1
 -1215 1307 l 1
 -1067 1307 l 1
 -1102 977 l 1
 -887 977 l 1
 -887 847 l 1
 -1115 847 l 1
 -1150 497 l 1
 -940 497 l 1
 -940 367 l 1
EndSplineSet
PickledDataWithLists: "(dp0
Vcom.schriftgestaltung.Glyphs.lastChange
p1
V2019/11/18 23:05:38
p2
s."
EndChar

StartChar: numbersign_braceleft.liga
Encoding: 97 -1 97
GlifName: numbersign_braceleft.liga
Width: 1126
Flags: W
HStem: -410 140<543.326 756> 0 21G<-766 -615.984 -363 -212.984> 367 130<-942 -729 -568 -326 -165 236.899> 847 130<-891 -680 -520 -277 -117 301> 1308 140<543.326 756>
VStem: 301 166<-197.681 304.16 550.477 847 977 1236.79>
LayerCount: 2
Fore
SplineSet
301 1083 m 2
 301 1333 429 1448 682 1448 c 2
 756 1448 l 1
 756 1308 l 1
 697 1308 l 2
 542 1308 465 1233 465 1083 c 2
 465 702 l 2
 465 539 395 453 254 432 c 1
 396 432 467 331 467 162 c 2
 467 -41 l 2
 467 -194 544 -270 697 -270 c 2
 756 -270 l 1
 756 -410 l 1
 682 -410 l 2
 429 -410 301 -295 301 -45 c 2
 301 160 l 2
 301 313 220 367 64 367 c 2
 -178 367 l 1
 -215 0 l 1
 -363 0 l 1
 -326 367 l 1
 -581 367 l 1
 -618 0 l 1
 -766 0 l 1
 -729 367 l 1
 -942 367 l 1
 -942 497 l 1
 -716 497 l 1
 -680 847 l 1
 -891 847 l 1
 -891 977 l 1
 -667 977 l 1
 -633 1308 l 1
 -487 1308 l 1
 -520 977 l 1
 -264 977 l 1
 -230 1308 l 1
 -82 1308 l 1
 -117 977 l 1
 301 977 l 1
 301 1083 l 2
-312 497 m 1
 -277 847 l 1
 -533 847 l 1
 -568 497 l 1
 -312 497 l 1
301 847 m 1
 -130 847 l 1
 -165 497 l 1
 64 497 l 2
 183 497 267 518 291 608 c 0
 298 633 301 663 301 698 c 2
 301 847 l 1
EndSplineSet
PickledDataWithLists: "(dp0
Vcom.schriftgestaltung.Glyphs.lastChange
p1
V2019/11/18 23:07:02
p2
s."
EndChar

StartChar: numbersign_bracketleft.liga
Encoding: 98 -1 98
GlifName: numbersign_bracketleft.liga
Width: 1126
Flags: W
HStem: -410 140<370 697> 0 21G<-766 -615.984 -363 -212.984> 367 130<-942 -729 -568 -326 -165 204> 847 130<-891 -680 -520 -277 -117 204> 1308 140<370 697>
VStem: 204 166<-270 367 497 847 977 1308>
LayerCount: 2
Fore
SplineSet
-312 497 m 1
 -277 847 l 1
 -533 847 l 1
 -568 497 l 1
 -312 497 l 1
697 -410 m 1
 204 -410 l 1
 204 367 l 1
 -178 367 l 1
 -215 0 l 1
 -363 0 l 1
 -326 367 l 1
 -581 367 l 1
 -618 0 l 1
 -766 0 l 1
 -729 367 l 1
 -942 367 l 1
 -942 497 l 1
 -716 497 l 1
 -680 847 l 1
 -891 847 l 1
 -891 977 l 1
 -667 977 l 1
 -633 1308 l 1
 -487 1308 l 1
 -520 977 l 1
 -264 977 l 1
 -230 1308 l 1
 -82 1308 l 1
 -117 977 l 1
 204 977 l 1
 204 1448 l 1
 697 1448 l 1
 697 1308 l 1
 370 1308 l 1
 370 -270 l 1
 697 -270 l 1
 697 -410 l 1
204 847 m 1
 -130 847 l 1
 -165 497 l 1
 204 497 l 1
 204 847 l 1
EndSplineSet
PickledDataWithLists: "(dp0
Vcom.schriftgestaltung.Glyphs.lastChange
p1
V2019/11/18 23:05:38
p2
s."
EndChar

StartChar: numbersign_colon.liga
Encoding: 99 -1 99
GlifName: numbersign_colon.liga
Width: 1126
Flags: W
HStem: -18 307<316.561 529.003> 0 21G<-766 -615.984 -363 -212.984> 367 130<-942 -729 -568 -326 -165 45> 715 307<315.108 531.625> 847 130<-891 -680 -520 -277 -117 98>
VStem: 269 307<28.4731 241.617 761.473 974.617>
LayerCount: 2
Fore
SplineSet
45 367 m 1x6c
 -178 367 l 1
 -215 0 l 1
 -363 0 l 1
 -326 367 l 1
 -581 367 l 1
 -618 0 l 1
 -766 0 l 1
 -729 367 l 1
 -942 367 l 1
 -942 497 l 1
 -716 497 l 1
 -680 847 l 1
 -891 847 l 1
 -891 977 l 1
 -667 977 l 1
 -633 1307 l 1
 -487 1307 l 1
 -520 977 l 1
 -264 977 l 1
 -230 1307 l 1
 -82 1307 l 1
 -117 977 l 1
 98 977 l 1
 98 847 l 1
 -130 847 l 1
 -165 497 l 1
 45 497 l 1
 45 367 l 1x6c
-312 497 m 1
 -277 847 l 1
 -533 847 l 1
 -568 497 l 1
 -312 497 l 1
422 1022 m 0x34
 509 1022 576 954 576 868 c 0
 576 781 509 715 422 715 c 0
 352 715 303 758 281 808 c 0
 273 826 269 847 269 868 c 0
 269 939 313 988 363 1010 c 0
 381 1018 401 1022 422 1022 c 0x34
422 289 m 0xa4
 508 289 576 221 576 135 c 0
 576 48 509 -18 422 -18 c 0
 351 -18 303 26 281 76 c 0
 273 94 269 114 269 135 c 0
 269 206 313 254 363 276 c 0
 381 284 401 289 422 289 c 0xa4
EndSplineSet
PickledDataWithLists: "(dp0
Vcom.schriftgestaltung.Glyphs.lastChange
p1
V2019/11/18 23:05:38
p2
s."
EndChar

StartChar: numbersign_equal.liga
Encoding: 100 -1 100
GlifName: numbersign_equal.liga
Width: 1126
Flags: W
HStem: 0 21G<-766 -615.984 -363 -212.987> 298 147<-170 852> 367 130<-942 -729 -568 -326> 646 147<-134 852> 847 130<-891 -680 -520 -277>
LayerCount: 2
Fore
SplineSet
-312 497 m 1xb8
 -277 847 l 1
 -533 847 l 1
 -568 497 l 1
 -312 497 l 1xb8
-215 0 m 1
 -363 0 l 1
 -326 367 l 1
 -581 367 l 1
 -618 0 l 1
 -766 0 l 1
 -729 367 l 1
 -942 367 l 1
 -942 497 l 1
 -716 497 l 1xb8
 -680 847 l 1
 -891 847 l 1
 -891 977 l 1
 -667 977 l 1
 -633 1307 l 1
 -487 1307 l 1
 -520 977 l 1
 -264 977 l 1
 -230 1307 l 1
 -82 1307 l 1
 -134 793 l 1
 852 793 l 1
 852 646 l 1
 -149 646 l 1
 -170 445 l 1
 852 445 l 1
 852 298 l 1
 -185 298 l 1xd8
 -215 0 l 1
EndSplineSet
PickledDataWithLists: "(dp0
Vcom.schriftgestaltung.Glyphs.lastChange
p1
V2019/11/18 23:05:38
p2
s."
EndChar

StartChar: numbersign_exclam.liga
Encoding: 101 -1 101
GlifName: numbersign_exclam.liga
Width: 1126
Flags: W
HStem: -18 264<318.912 517.897> 0 21G<-766 -615.984 -363 -212.984> 367 130<-942 -729 -568 -326 -165 45> 847 130<-891 -680 -520 -277 -117 98>
VStem: 287 264<15.1032 214.088> 314 211<920.797 1413> 344 154<383 875.203>
LayerCount: 2
Fore
SplineSet
45 367 m 1x70
 -178 367 l 1
 -215 0 l 1
 -363 0 l 1
 -326 367 l 1
 -581 367 l 1
 -618 0 l 1
 -766 0 l 1
 -729 367 l 1
 -942 367 l 1
 -942 497 l 1
 -716 497 l 1
 -680 847 l 1
 -891 847 l 1
 -891 977 l 1
 -667 977 l 1
 -633 1307 l 1
 -487 1307 l 1
 -520 977 l 1
 -264 977 l 1
 -230 1307 l 1
 -82 1307 l 1
 -117 977 l 1
 98 977 l 1
 98 847 l 1
 -130 847 l 1
 -165 497 l 1
 45 497 l 1
 45 367 l 1x70
-312 497 m 1
 -277 847 l 1
 -533 847 l 1
 -568 497 l 1
 -312 497 l 1
525 1413 m 1x34
 498 383 l 1
 344 383 l 1x32
 314 1413 l 1
 525 1413 l 1x34
287 113 m 256xb8
 287 189 344 246 420 246 c 0
 495 246 551 188 551 113 c 256
 551 38 495 -18 420 -18 c 0
 345 -18 287 38 287 113 c 256xb8
EndSplineSet
PickledDataWithLists: "(dp0
Vcom.schriftgestaltung.Glyphs.lastChange
p1
V2019/11/18 23:05:38
p2
s."
EndChar

StartChar: numbersign_numbersign.liga
Encoding: 102 -1 102
GlifName: numbersign_numbersign.liga
Width: 1126
Flags: W
HStem: 0 21G<-778 -627.984 -375 -224.984 30 180.016 433 583.016> 367 130<-954 -741 -580 -338 -177 67 228 470 631 841> 847 130<-903 -692 -532 -289 -129 116 276 519 679 894>
LayerCount: 2
Fore
SplineSet
-324 497 m 5
 -289 847 l 5
 -545 847 l 5
 -580 497 l 5
 -324 497 l 5
484 497 m 5
 519 847 l 5
 263 847 l 5
 228 497 l 5
 484 497 l 5
841 367 m 5
 618 367 l 5
 581 0 l 5
 433 0 l 5
 470 367 l 5
 215 367 l 5
 178 0 l 5
 30 0 l 5
 67 367 l 5
 -190 367 l 5
 -227 0 l 5
 -375 0 l 5
 -338 367 l 5
 -593 367 l 5
 -630 0 l 5
 -778 0 l 5
 -741 367 l 5
 -954 367 l 5
 -954 497 l 5
 -728 497 l 5
 -692 847 l 5
 -903 847 l 5
 -903 977 l 5
 -679 977 l 5
 -645 1307 l 5
 -499 1307 l 5
 -532 977 l 5
 -276 977 l 5
 -242 1307 l 5
 -94 1307 l 5
 -129 977 l 5
 129 977 l 5
 163 1307 l 5
 309 1307 l 5
 276 977 l 5
 532 977 l 5
 566 1307 l 5
 714 1307 l 5
 679 977 l 5
 894 977 l 5
 894 847 l 5
 666 847 l 5
 631 497 l 5
 841 497 l 5
 841 367 l 5
116 847 m 5
 -142 847 l 5
 -177 497 l 5
 80 497 l 5
 116 847 l 5
EndSplineSet
PickledDataWithLists: "(dp0
Vcom.schriftgestaltung.Glyphs.lastChange
p1
V2019/11/18 23:05:38
p2
s."
EndChar

StartChar: numbersign_parenleft.liga
Encoding: 103 -1 103
GlifName: numbersign_parenleft.liga
Width: 1126
Flags: W
HStem: 0 21G<-766 -615.984 -363 -212.984> 367 130<-942 -729 -568 -326 -165 159> 847 130<-891 -680 -520 -277 -117 203>
VStem: 159 178<235.483 367 497 834.097>
LayerCount: 2
Fore
SplineSet
-312 497 m 1
 -277 847 l 1
 -533 847 l 1
 -568 497 l 1
 -312 497 l 1
249 977 m 1
 333 1178 465 1341 624 1489 c 1
 725 1386 l 1
 466 1131 337 848 337 537 c 0
 337 382 370 234 435 91 c 0
 500 -52 597 -186 725 -313 c 1
 620 -420 l 1
 360 -179 210 83 170 367 c 1
 -178 367 l 1
 -215 0 l 1
 -363 0 l 1
 -326 367 l 1
 -581 367 l 1
 -618 0 l 1
 -766 0 l 1
 -729 367 l 1
 -942 367 l 1
 -942 497 l 1
 -716 497 l 1
 -680 847 l 1
 -891 847 l 1
 -891 977 l 1
 -667 977 l 1
 -633 1307 l 1
 -487 1307 l 1
 -520 977 l 1
 -264 977 l 1
 -230 1307 l 1
 -82 1307 l 1
 -117 977 l 1
 249 977 l 1
159 524 m 0
 159 634 176 753 203 847 c 1
 -130 847 l 1
 -165 497 l 1
 159 497 l 1
 159 506 159 515 159 524 c 0
EndSplineSet
PickledDataWithLists: "(dp0
Vcom.schriftgestaltung.Glyphs.lastChange
p1
V2019/11/18 23:05:38
p2
s."
EndChar

StartChar: numbersign_question.liga
Encoding: 104 -1 104
GlifName: numbersign_question.liga
Width: 1126
Flags: W
HStem: -18 264<246.052 446.285> 0 21G<-766 -615.984 -363 -212.984> 367 130<-942 -729 -568 -326 -165 45> 847 130<-891 -680 -520 -277 -117 98> 1257 156<162 412.767>
VStem: 215 262<13.0518 214.425> 273 149<383 631.54> 592 189<821.392 1106.84>
LayerCount: 2
Fore
SplineSet
45 367 m 1x79
 -178 367 l 1
 -215 0 l 1
 -363 0 l 1
 -326 367 l 1
 -581 367 l 1
 -618 0 l 1
 -766 0 l 1
 -729 367 l 1
 -942 367 l 1
 -942 497 l 1
 -716 497 l 1
 -680 847 l 1
 -891 847 l 1
 -891 977 l 1
 -667 977 l 1
 -633 1307 l 1
 -487 1307 l 1
 -520 977 l 1
 -264 977 l 1
 -230 1307 l 1
 -82 1307 l 1
 -117 977 l 1
 98 977 l 1
 98 847 l 1
 -130 847 l 1
 -165 497 l 1
 45 497 l 1
 45 367 l 1x79
-312 497 m 1
 -277 847 l 1
 -533 847 l 1
 -568 497 l 1
 -312 497 l 1
377 766 m 2
 514 766 592 817 592 952 c 0
 592 1116 482 1202 350 1237 c 0
 300 1250 246 1257 187 1257 c 2
 162 1257 l 1
 162 1413 l 1
 189 1413 l 2
 441 1413 618 1323 718 1173 c 0
 754 1118 781 1050 781 969 c 0
 781 743 647 643 430 629 c 1
 422 383 l 1
 273 383 l 1x3b
 260 766 l 1
 377 766 l 2
215 113 m 256xbd
 215 189 270 246 346 246 c 0
 422 246 477 189 477 113 c 256
 477 37 422 -18 346 -18 c 0
 271 -18 215 38 215 113 c 256xbd
EndSplineSet
PickledDataWithLists: "(dp0
Vcom.schriftgestaltung.Glyphs.lastChange
p1
V2019/11/18 23:05:38
p2
s."
EndChar

StartChar: numbersign_underscore.liga
Encoding: 105 -1 105
GlifName: numbersign_underscore.liga
Width: 1126
Flags: W
HStem: -410 144<-243 985> 0 21G<-767 -616.984> 367 130<-943 -730 -569 -327 -166 44> 847 130<-892 -681 -521 -278 -118 97>
LayerCount: 2
Fore
SplineSet
-313 497 m 1
 -278 847 l 1
 -534 847 l 1
 -569 497 l 1
 -313 497 l 1
44 367 m 1
 -179 367 l 1
 -243 -266 l 1
 985 -266 l 1
 985 -410 l 1
 -406 -410 l 1
 -327 367 l 1
 -582 367 l 1
 -619 0 l 1
 -767 0 l 1
 -730 367 l 1
 -943 367 l 1
 -943 497 l 1
 -717 497 l 1
 -681 847 l 1
 -892 847 l 1
 -892 977 l 1
 -668 977 l 1
 -634 1307 l 1
 -488 1307 l 1
 -521 977 l 1
 -265 977 l 1
 -231 1307 l 1
 -83 1307 l 1
 -118 977 l 1
 97 977 l 1
 97 847 l 1
 -131 847 l 1
 -166 497 l 1
 44 497 l 1
 44 367 l 1
EndSplineSet
PickledDataWithLists: "(dp0
Vcom.schriftgestaltung.Glyphs.lastChange
p1
V2019/11/18 23:05:38
p2
s."
EndChar

StartChar: percent_percent.liga
Encoding: 106 -1 106
GlifName: percent_percent.liga
Width: 1126
Flags: W
HStem: -14 127<-251.305 -76.183 591.269 767.806> 457 127<-251.591 -75.5836 592.409 769.174> 829 127<-768.731 -592.409 75.8563 251.591> 1300 127<-767.591 -591.269 76.6129 251.305>
VStem: -948 147<986.708 1267.81> -559 147<988.226 1269.7> -432 147<143.708 424.809> 285 147<988.226 1269.7> 412 147<143.708 424.809> 802 147<146.416 426.292>
LayerCount: 2
Fore
SplineSet
-164 113 m 0xfa40
 -77 113 -42 196 -42 285 c 0
 -42 384 -75 457 -164 457 c 0
 -251 457 -285 374 -285 285 c 0
 -285 186 -253 113 -164 113 c 0xfa40
-680 956 m 0
 -593 956 -559 1039 -559 1128 c 0xfc40
 -559 1227 -591 1300 -680 1300 c 0
 -767 1300 -801 1217 -801 1128 c 0
 -801 1029 -769 956 -680 956 c 0
-676 1427 m 0
 -499 1427 -412 1312 -412 1133 c 0
 -412 993 -475 897 -571 852 c 0
 -605 836 -643 829 -684 829 c 0
 -861 829 -948 945 -948 1124 c 0
 -948 1262 -885 1360 -789 1404 c 0
 -755 1419 -717 1427 -676 1427 c 0
680 113 m 0
 767 113 802 196 802 285 c 0
 802 384 769 457 680 457 c 0
 593 457 559 374 559 285 c 0xf8c0
 559 186 591 113 680 113 c 0
684 584 m 0
 862 584 949 468 949 289 c 0
 949 151 885 53 789 9 c 0
 755 -6 717 -14 676 -14 c 0
 499 -14 412 102 412 281 c 0
 412 419 475 517 571 561 c 0
 605 576 643 584 684 584 c 0
164 956 m 0
 251 956 285 1039 285 1128 c 0xf940
 285 1227 253 1300 164 1300 c 0
 77 1300 43 1217 43 1128 c 0
 43 1029 75 956 164 956 c 0
168 1427 m 2
 345 1427 432 1312 432 1133 c 0
 432 993 369 897 273 852 c 0
 239 836 201 829 160 829 c 0
 0 829 -85 925 -101 1072 c 1
 -801 0 l 1
 -965 0 l 1
 -36 1427 l 1
 168 1427 l 2
-160 584 m 0
 0 584 86 489 102 343 c 1
 799 1413 l 1
 965 1413 l 1
 34 -14 l 1
 -168 -14 l 2
 -345 -14 -432 102 -432 281 c 0xfa40
 -432 419 -369 517 -273 561 c 0
 -239 576 -201 584 -160 584 c 0
EndSplineSet
PickledDataWithLists: "(dp0
Vcom.schriftgestaltung.Glyphs.lastChange
p1
V2019/11/18 23:05:38
p2
s."
EndChar

StartChar: period_equal.liga
Encoding: 107 -1 107
GlifName: period_equal.liga
Width: 1126
Flags: HW
HStem: 298 147<-8 852> 399 334<-534.236 -309.203> 646 147<-8 852>
VStem: -588 332<452.971 678.839>
LayerCount: 2
Fore
SplineSet
993 646 m 5
 133 646 l 5
 133 793 l 5
 993 793 l 5
 993 646 l 5
993 298 m 5
 133 298 l 5
 133 445 l 5
 993 445 l 5
 993 298 l 5
852 646 m 1x30
 -8 646 l 1
 -8 793 l 1
 852 793 l 1
 852 646 l 1x30
852 298 m 1x90
 -8 298 l 1
 -8 445 l 1
 852 445 l 1
 852 298 l 1x90
-422 733 m 0x50
 -326 733 -256 660 -256 565 c 256
 -256 488 -302 436 -357 412 c 0
 -377 403 -399 399 -422 399 c 0
 -499 399 -551 446 -575 501 c 0
 -584 521 -588 542 -588 565 c 256
 -588 643 -542 695 -487 720 c 0
 -467 729 -445 733 -422 733 c 0x50
EndSplineSet
PickledDataWithLists: "(dp0
Vcom.schriftgestaltung.Glyphs.lastChange
p1
V2019/11/18 23:05:38
p2
s."
EndChar

StartChar: period_hyphen.liga
Encoding: 108 -1 108
GlifName: period_hyphen.liga
Width: 1126
Flags: W
HStem: 399 334<-534.236 -309.203> 463 164<-1 721>
VStem: -588 332<452.971 678.839>
LayerCount: 2
Fore
SplineSet
721 463 m 1x60
 -1 463 l 1
 -1 627 l 1
 721 627 l 1
 721 463 l 1x60
-422 733 m 0xa0
 -326 733 -256 660 -256 565 c 256
 -256 488 -302 436 -357 412 c 0
 -377 403 -399 399 -422 399 c 0
 -499 399 -551 446 -575 501 c 0
 -584 521 -588 542 -588 565 c 256
 -588 643 -542 695 -487 720 c 0
 -467 729 -445 733 -422 733 c 0xa0
EndSplineSet
PickledDataWithLists: "(dp0
Vcom.schriftgestaltung.Glyphs.lastChange
p1
V2019/11/18 23:05:38
p2
s."
EndChar

StartChar: period_period.liga
Encoding: 109 -1 109
GlifName: period_period.liga
Width: 1126
Flags: W
HStem: -18 333<-542.236 -317.485 301.764 526.515>
VStem: -596 332<35.2034 260.559> 248 332<35.2034 260.559>
LayerCount: 2
Fore
SplineSet
414 315 m 0
 492 315 543 268 567 212 c 0
 576 192 580 170 580 147 c 0
 580 52 509 -18 414 -18 c 0
 337 -18 285 28 261 83 c 0
 252 103 248 124 248 147 c 0
 248 224 294 278 349 302 c 0
 369 311 391 315 414 315 c 0
-430 315 m 0
 -352 315 -301 268 -277 212 c 0
 -268 192 -264 170 -264 147 c 0
 -264 52 -335 -18 -430 -18 c 0
 -507 -18 -559 28 -583 83 c 0
 -592 103 -596 124 -596 147 c 0
 -596 224 -550 278 -495 302 c 0
 -475 311 -453 315 -430 315 c 0
EndSplineSet
PickledDataWithLists: "(dp0
Vcom.schriftgestaltung.Glyphs.lastChange
p1
V2019/11/18 23:05:38
p2
s."
EndChar

StartChar: period_period_equal.liga
Encoding: 110 -1 110
GlifName: period_period_equal.liga
Width: 1126
Flags: W
HStem: 298 147<-718 993> 399 334<-1801.24 -1576.2 -1238.24 -1013.2> 646 147<-718 993>
VStem: -1855 332<452.971 678.839> -1292 332<452.971 678.839>
LayerCount: 2
Fore
SplineSet
-1126 733 m 0x58
 -1030 733 -960 660 -960 565 c 256
 -960 488 -1006 436 -1061 412 c 0
 -1081 403 -1103 399 -1126 399 c 0
 -1203 399 -1255 446 -1279 501 c 0
 -1288 521 -1292 542 -1292 565 c 256
 -1292 643 -1246 695 -1191 720 c 0
 -1171 729 -1149 733 -1126 733 c 0x58
-1689 733 m 0
 -1593 733 -1523 660 -1523 565 c 256
 -1523 488 -1569 436 -1624 412 c 0
 -1644 403 -1666 399 -1689 399 c 0
 -1766 399 -1818 446 -1842 501 c 0
 -1851 521 -1855 542 -1855 565 c 256
 -1855 643 -1809 695 -1754 720 c 0
 -1734 729 -1712 733 -1689 733 c 0
993 646 m 1x38
 -718 646 l 1
 -718 793 l 1
 993 793 l 1
 993 646 l 1x38
993 298 m 1x98
 -718 298 l 1
 -718 445 l 1
 993 445 l 1
 993 298 l 1x98
EndSplineSet
PickledDataWithLists: "(dp0
Vcom.schriftgestaltung.Glyphs.lastChange
p1
V2019/11/18 23:05:38
p2
s."
EndChar

StartChar: period_period_less.liga
Encoding: 111 -1 111
GlifName: period_period_less.liga
Width: 1126
Flags: W
HStem: 399 334<-1801.24 -1576.2 -957.236 -732.203>
VStem: -1855 332<452.971 678.839> -1011 332<452.971 678.839>
LayerCount: 2
Fore
SplineSet
918 985 m 1
 123 543 l 1
 918 104 l 1
 830 -18 l 1
 -192 545 l 1
 830 1106 l 1
 918 985 l 1
-845 733 m 0
 -749 733 -679 660 -679 565 c 256
 -679 488 -725 436 -780 412 c 0
 -800 403 -822 399 -845 399 c 0
 -922 399 -974 446 -998 501 c 0
 -1007 521 -1011 542 -1011 565 c 256
 -1011 643 -965 695 -910 720 c 0
 -890 729 -868 733 -845 733 c 0
-1689 733 m 0
 -1593 733 -1523 660 -1523 565 c 256
 -1523 488 -1569 436 -1624 412 c 0
 -1644 403 -1666 399 -1689 399 c 0
 -1766 399 -1818 446 -1842 501 c 0
 -1851 521 -1855 542 -1855 565 c 256
 -1855 643 -1809 695 -1754 720 c 0
 -1734 729 -1712 733 -1689 733 c 0
EndSplineSet
PickledDataWithLists: "(dp0
Vcom.schriftgestaltung.Glyphs.lastChange
p1
V2019/11/18 23:05:38
p2
s."
EndChar

StartChar: period_period_period.liga
Encoding: 112 -1 112
GlifName: period_period_period.liga
Width: 1126
Flags: W
HStem: -18 333<-1527.24 -1302.48 -683.236 -458.485 160.764 385.515>
VStem: -1581 332<35.2034 260.559> -737 332<35.2034 260.559> 107 332<35.2034 260.559>
CounterMasks: 1 70
LayerCount: 2
Fore
SplineSet
273 315 m 0
 351 315 402 268 426 212 c 0
 435 192 439 170 439 147 c 0
 439 52 368 -18 273 -18 c 0
 196 -18 144 28 120 83 c 0
 111 103 107 124 107 147 c 0
 107 224 153 278 208 302 c 0
 228 311 250 315 273 315 c 0
-1415 315 m 0
 -1337 315 -1286 268 -1262 212 c 0
 -1253 192 -1249 170 -1249 147 c 0
 -1249 52 -1320 -18 -1415 -18 c 0
 -1492 -18 -1544 28 -1568 83 c 0
 -1577 103 -1581 124 -1581 147 c 0
 -1581 224 -1535 278 -1480 302 c 0
 -1460 311 -1438 315 -1415 315 c 0
-571 315 m 0
 -493 315 -442 268 -418 212 c 0
 -409 192 -405 170 -405 147 c 0
 -405 52 -476 -18 -571 -18 c 0
 -648 -18 -700 28 -724 83 c 0
 -733 103 -737 124 -737 147 c 0
 -737 224 -691 278 -636 302 c 0
 -616 311 -594 315 -571 315 c 0
EndSplineSet
PickledDataWithLists: "(dp0
Vcom.schriftgestaltung.Glyphs.lastChange
p1
V2019/11/18 23:05:38
p2
s."
EndChar

StartChar: period_question.liga
Encoding: 113 -1 113
GlifName: period_question.liga
Width: 1126
Flags: HW
HStem: -18 333<-542.236 -317.485> -18 264<246.052 446.285> 1257 156<162 412.767>
VStem: -596 332<35.2034 260.559> 215 262<13.0518 214.425> 273 149<383 631.54> 592 189<821.392 1106.84>
LayerCount: 2
Fore
SplineSet
377 766 m 6x36
 514 766 592 817 592 952 c 4
 592 1116 482 1202 350 1237 c 4
 300 1250 246 1257 187 1257 c 6
 162 1257 l 5
 162 1413 l 5
 189 1413 l 6
 441 1413 618 1323 718 1173 c 4
 754 1118 781 1050 781 969 c 4
 781 743 647 643 430 629 c 5
 422 383 l 5
 273 383 l 5
 260 766 l 5
 377 766 l 6x36
215 113 m 260x7a
 215 189 270 246 346 246 c 4
 422 246 477 189 477 113 c 260
 477 37 422 -18 346 -18 c 4
 271 -18 215 38 215 113 c 260x7a
-430 315 m 4xb2
 -352 315 -301 268 -277 212 c 4
 -268 192 -264 170 -264 147 c 4
 -264 52 -335 -18 -430 -18 c 4
 -507 -18 -559 28 -583 83 c 4
 -592 103 -596 124 -596 147 c 4
 -596 224 -550 278 -495 302 c 4
 -475 311 -453 315 -430 315 c 4xb2
EndSplineSet
PickledDataWithLists: "(dp0
Vcom.schriftgestaltung.Glyphs.lastChange
p1
V2019/11/18 23:05:38
p2
s."
EndChar

StartChar: plus_greater.liga
Encoding: 114 -1 114
GlifName: plus_greater.liga
Width: 1126
Flags: HW
HStem: 469 152<-901 -508 -336 57>
VStem: -508 172<61 469 621 1026>
LayerCount: 2
Fore
SplineSet
-125 985 m 1
 -37 1106 l 1
 985 545 l 1
 -37 -16 l 1
 -125 104 l 1
 670 543 l 1
 -125 985 l 1
57 469 m 1
 -336 469 l 1
 -336 61 l 1
 -508 61 l 1
 -508 469 l 1
 -901 469 l 1
 -901 621 l 1
 -508 621 l 1
 -508 1026 l 1
 -336 1026 l 1
 -336 621 l 1
 57 621 l 1
 57 469 l 1
EndSplineSet
PickledDataWithLists: "(dp0
Vcom.schriftgestaltung.Glyphs.lastChange
p1
V2019/11/18 23:05:38
p2
s."
EndChar

StartChar: plus_plus.liga
Encoding: 115 -1 115
GlifName: plus_plus.liga
Width: 1126
Flags: W
HStem: 469 152<-901 -508 -336 336 508 901>
VStem: -508 172<61 469 621 1026> 336 172<61 469 621 1026>
LayerCount: 2
Fore
SplineSet
901 469 m 1
 508 469 l 1
 508 61 l 1
 336 61 l 1
 336 469 l 1
 -336 469 l 1
 -336 61 l 1
 -508 61 l 1
 -508 469 l 1
 -901 469 l 1
 -901 621 l 1
 -508 621 l 1
 -508 1026 l 1
 -336 1026 l 1
 -336 621 l 1
 336 621 l 1
 336 1026 l 1
 508 1026 l 1
 508 621 l 1
 901 621 l 1
 901 469 l 1
EndSplineSet
PickledDataWithLists: "(dp0
Vcom.schriftgestaltung.Glyphs.lastChange
p1
V2019/11/18 23:05:38
p2
s."
EndChar

StartChar: plus_plus_plus.liga
Encoding: 116 -1 116
GlifName: plus_plus_plus.liga
Width: 1126
Flags: W
HStem: 469 152<-1886 -1493 -1321 -649 -477 195 367 760>
VStem: -1493 172<61 469 621 1026> -649 172<61 469 621 1026> 195 172<61 469 621 1026>
CounterMasks: 1 70
LayerCount: 2
Fore
SplineSet
760 469 m 1
 367 469 l 1
 367 61 l 1
 195 61 l 1
 195 469 l 1
 -477 469 l 1
 -477 61 l 1
 -649 61 l 1
 -649 469 l 1
 -1321 469 l 1
 -1321 61 l 1
 -1493 61 l 1
 -1493 469 l 1
 -1886 469 l 1
 -1886 621 l 1
 -1493 621 l 1
 -1493 1026 l 1
 -1321 1026 l 1
 -1321 621 l 1
 -649 621 l 1
 -649 1026 l 1
 -477 1026 l 1
 -477 621 l 1
 195 621 l 1
 195 1026 l 1
 367 1026 l 1
 367 621 l 1
 760 621 l 1
 760 469 l 1
EndSplineSet
PickledDataWithLists: "(dp0
Vcom.schriftgestaltung.Glyphs.lastChange
p1
V2019/11/18 23:05:38
p2
s."
EndChar

StartChar: question_colon.liga
Encoding: 117 -1 117
GlifName: question_colon.liga
Width: 1126
Flags: W
HStem: -18 307<316.314 529.003> -18 264<-597.948 -397.715> 715 307<315.087 529.003> 1257 156<-682 -431.233>
VStem: -629 262<13.0518 214.425> -571 149<383 631.54> -252 189<821.392 1106.84> 269 307<25.875 241.904 758.875 975.165>
LayerCount: 2
Fore
SplineSet
422 1022 m 4x33
 493 1022 542 977 564 927 c 4
 572 908 576 889 576 868 c 4
 576 781 509 715 422 715 c 4
 334 715 269 781 269 868 c 4
 269 939 312 987 362 1010 c 4
 380 1018 401 1022 422 1022 c 4x33
422 289 m 4xb3
 493 289 542 244 564 194 c 4
 572 175 576 156 576 135 c 4
 576 48 509 -18 422 -18 c 4
 334 -18 269 48 269 135 c 4
 269 206 312 253 362 276 c 4
 380 284 401 289 422 289 c 4xb3
-467 766 m 6
 -330 766 -252 817 -252 952 c 4
 -252 1116 -362 1202 -494 1237 c 4
 -544 1250 -598 1257 -657 1257 c 6
 -682 1257 l 5
 -682 1413 l 5
 -655 1413 l 6
 -403 1413 -226 1323 -126 1173 c 4
 -90 1118 -63 1050 -63 969 c 4
 -63 743 -197 643 -414 629 c 5
 -422 383 l 5
 -571 383 l 5x37
 -584 766 l 5
 -467 766 l 6
-629 113 m 260x7b
 -629 189 -574 246 -498 246 c 4
 -422 246 -367 189 -367 113 c 260
 -367 37 -422 -18 -498 -18 c 4
 -573 -18 -629 38 -629 113 c 260x7b
EndSplineSet
PickledDataWithLists: "(dp0
Vcom.schriftgestaltung.Glyphs.lastChange
p1
V2019/11/18 23:05:38
p2
s."
EndChar

StartChar: question_equal.liga
Encoding: 118 -1 118
GlifName: question_equal.liga
Width: 1126
Flags: W
HStem: -18 264<-597.948 -397.715> 298 147<-8 852> 646 147<102 852> 1257 156<-682 -425.02>
VStem: -629 262<13.0518 214.425> -571 149<383 631.54> -252 189<821.392 1108.53>
LayerCount: 2
Fore
SplineSet
852 646 m 1xf2
 -8 646 l 1
 102 793 l 1
 852 793 l 1
 852 646 l 1xf2
852 298 m 1
 -8 298 l 1
 -8 445 l 1
 852 445 l 1
 852 298 l 1
-252 952 m 0
 -252 1169 -439 1257 -657 1257 c 2
 -682 1257 l 1
 -682 1413 l 1
 -655 1413 l 2
 -403 1413 -226 1323 -126 1173 c 0
 -90 1118 -63 1050 -63 969 c 0
 -63 743 -197 643 -414 629 c 1
 -422 383 l 1
 -571 383 l 1xf6
 -584 766 l 1
 -467 766 l 2
 -330 766 -252 817 -252 952 c 0
-629 113 m 256xfa
 -629 189 -574 246 -498 246 c 0
 -422 246 -367 189 -367 113 c 256
 -367 37 -422 -18 -498 -18 c 0
 -573 -18 -629 38 -629 113 c 256xfa
EndSplineSet
PickledDataWithLists: "(dp0
Vcom.schriftgestaltung.Glyphs.lastChange
p1
V2019/11/18 23:07:02
p2
s."
EndChar

StartChar: question_period.liga
Encoding: 119 -1 119
GlifName: question_period.liga
Width: 1126
Flags: W
HStem: -18 333<301.764 526.515> -18 264<-597.948 -397.715> 1257 156<-682 -425.02>
VStem: -629 262<13.0518 214.425> -571 149<383 631.54> -252 189<821.392 1108.53> 248 332<35.2034 260.559>
LayerCount: 2
Fore
SplineSet
414 315 m 0xa6
 492 315 543 268 567 212 c 0
 576 192 580 170 580 147 c 0
 580 52 509 -18 414 -18 c 0
 337 -18 285 28 261 83 c 0
 252 103 248 124 248 147 c 0
 248 224 294 278 349 302 c 0
 369 311 391 315 414 315 c 0xa6
-252 952 m 0
 -252 1169 -439 1257 -657 1257 c 2
 -682 1257 l 1
 -682 1413 l 1
 -655 1413 l 2
 -403 1413 -226 1323 -126 1173 c 0
 -90 1118 -63 1050 -63 969 c 0
 -63 743 -197 643 -414 629 c 1
 -422 383 l 1
 -571 383 l 1x2e
 -584 766 l 1
 -467 766 l 2
 -330 766 -252 817 -252 952 c 0
-629 113 m 256x76
 -629 189 -574 246 -498 246 c 0
 -422 246 -367 189 -367 113 c 256
 -367 37 -422 -18 -498 -18 c 0
 -573 -18 -629 38 -629 113 c 256x76
EndSplineSet
PickledDataWithLists: "(dp0
Vcom.schriftgestaltung.Glyphs.lastChange
p1
V2019/11/18 23:05:38
p2
s."
EndChar

StartChar: question_question.liga
Encoding: 120 -1 120
GlifName: question_question.liga
Width: 1126
Flags: W
HStem: -18 264<-597.948 -397.715 246.052 446.285> 383 383<-571 -424.189 273 419.811> 629 137<-414 -309.724 430 534.276> 1257 156<-682 -431.233 162 412.767>
VStem: -629 262<13.0518 214.425> -571 149<383 631.54> -252 189<821.392 1106.84> 215 262<13.0518 214.425> 273 149<383 631.54> 592 189<821.392 1106.84>
LayerCount: 2
Fore
SplineSet
377 766 m 2xd2c0
 514 766 592 817 592 952 c 0
 592 1116 482 1202 350 1237 c 0
 300 1250 246 1257 187 1257 c 2
 162 1257 l 1
 162 1413 l 1
 189 1413 l 2
 441 1413 618 1323 718 1173 c 0
 754 1118 781 1050 781 969 c 0
 781 743 647 643 430 629 c 1xb2c0
 422 383 l 1
 273 383 l 1xd2c0
 260 766 l 1xb2c0
 377 766 l 2xd2c0
215 113 m 256x9340
 215 189 270 246 346 246 c 0
 422 246 477 189 477 113 c 256
 477 37 422 -18 346 -18 c 0
 271 -18 215 38 215 113 c 256x9340
-467 766 m 2xd640
 -330 766 -252 817 -252 952 c 0
 -252 1116 -362 1202 -494 1237 c 0
 -544 1250 -598 1257 -657 1257 c 2
 -682 1257 l 1
 -682 1413 l 1
 -655 1413 l 2
 -403 1413 -226 1323 -126 1173 c 0
 -90 1118 -63 1050 -63 969 c 0
 -63 743 -197 643 -414 629 c 1xb640
 -422 383 l 1
 -571 383 l 1xd640
 -584 766 l 1xb640
 -467 766 l 2xd640
-629 113 m 256x9a40
 -629 189 -574 246 -498 246 c 0
 -422 246 -367 189 -367 113 c 256
 -367 37 -422 -18 -498 -18 c 0
 -573 -18 -629 38 -629 113 c 256x9a40
EndSplineSet
PickledDataWithLists: "(dp0
Vcom.schriftgestaltung.Glyphs.lastChange
p1
V2019/11/18 23:05:38
p2
s."
EndChar

StartChar: semicolon_semicolon.liga
Encoding: 121 -1 121
GlifName: semicolon_semicolon.liga
Width: 1126
Flags: HW
HStem: -342 137<-735 -547.012 109 296.988> 715 307<-528.913 -314.997 315.087 529.003>
VStem: -575 307<758.875 975.165> -471 219<-110.359 146.5> 269 307<758.875 975.165> 373 219<-110.359 146.5>
LayerCount: 2
Fore
SplineSet
279 193 m 0xc4
 279 270 335 322 414 322 c 256
 539 322 592 211 592 82 c 0
 592 -121 472 -248 320 -307 c 0
 260 -330 189 -342 109 -342 c 1
 109 -205 l 1
 114.3941898 -205.201651955 119.750257558 -205.301645133 125.06384709 -205.301645133 c 0
 225.151457934 -205.301645133 310.167758518 -169.823981707 351 -110 c 0
 366 -89 373 -64 373 -37 c 0
 373 74 279 83 279 193 c 0xc4
422 1022 m 0
 493 1022 542 977 564 927 c 0
 572 908 576 889 576 868 c 0
 576 781 509 715 422 715 c 0
 334 715 269 781 269 868 c 0xc8
 269 939 312 987 362 1010 c 0
 380 1018 401 1022 422 1022 c 0
-565 193 m 0
 -565 270 -509 322 -430 322 c 256
 -305 322 -252 211 -252 82 c 0
 -252 -121 -372 -248 -524 -307 c 0
 -584 -330 -655 -342 -735 -342 c 1
 -735 -205 l 1
 -729.6058102 -205.201651955 -724.249742442 -205.301645133 -718.93615291 -205.301645133 c 0
 -618.848542066 -205.301645133 -533.832241482 -169.823981707 -493 -110 c 0
 -478 -89 -471 -64 -471 -37 c 0xd0
 -471 74 -565 83 -565 193 c 0
-422 1022 m 0
 -351 1022 -302 977 -280 927 c 0
 -272 908 -268 889 -268 868 c 0
 -268 781 -335 715 -422 715 c 0
 -510 715 -575 781 -575 868 c 0xe0
 -575 939 -532 987 -482 1010 c 0
 -464 1018 -443 1022 -422 1022 c 0
EndSplineSet
PickledDataWithLists: "(dp0
Vcom.schriftgestaltung.Glyphs.lastChange
p1
V2019/11/18 23:05:38
p2
s."
EndChar

StartChar: slash_asterisk.liga
Encoding: 122 -1 122
GlifName: slash_asterisk.liga
Width: 1126
Flags: W
LayerCount: 2
Fore
SplineSet
820 840 m 1
 752 721 l 1
 471 907 l 1
 494 565 l 1
 351 565 l 1
 373 907 l 1
 86 721 l 1
 23 838 l 1
 330 989 l 1
 23 1143 l 1
 92 1260 l 1
 375 1071 l 1
 351 1413 l 1
 494 1413 l 1
 469 1071 l 1
 752 1262 l 1
 822 1139 l 1
 514 987 l 1
 820 840 l 1
-18 1413 m 1
 -704 -215 l 1
 -870 -215 l 1
 -184 1413 l 1
 -18 1413 l 1
EndSplineSet
PickledDataWithLists: "(dp0
Vcom.schriftgestaltung.Glyphs.lastChange
p1
V2019/11/18 23:05:38
p2
s."
EndChar

StartChar: slash_equal.liga
Encoding: 123 -1 123
GlifName: slash_equal.liga
Width: 1126
Flags: HW
HStem: 298 147<-171 852> 646 147<-24 852>
LayerCount: 2
Fore
SplineSet
852 646 m 5
 -86 646 l 5
 -24 793 l 5
 852 793 l 5
 852 646 l 5
852 298 m 5
 -233 298 l 5
 -171 445 l 5
 852 445 l 5
 852 298 l 5
-18 1413 m 5
 -704 -215 l 5
 -870 -215 l 5
 -184 1413 l 5
 -18 1413 l 5
EndSplineSet
PickledDataWithLists: "(dp0
Vcom.schriftgestaltung.Glyphs.lastChange
p1
V2019/11/18 23:05:38
p2
s."
EndChar

StartChar: slash_equal_equal.liga
Encoding: 124 -1 124
GlifName: slash_equal_equal.liga
Width: 1126
Flags: HW
HStem: 298 147<-1156 852> 646 147<-1009 852>
LayerCount: 2
Fore
SplineSet
-1003 1413 m 1
 -1689 -215 l 1
 -1855 -215 l 1
 -1169 1413 l 1
 -1003 1413 l 1
-1156 445 m 1
 852 445 l 1
 852 298 l 1
 -1218 298 l 1
 -1156 445 l 1
-1009 793 m 1
 852 793 l 1
 852 646 l 1
 -1071 646 l 1
 -1009 793 l 1
EndSplineSet
PickledDataWithLists: "(dp0
Vcom.schriftgestaltung.Glyphs.lastChange
p1
V2019/11/18 23:05:38
p2
s."
EndChar

StartChar: slash_greater.liga
Encoding: 125 -1 125
GlifName: slash_greater.liga
Width: 1126
Flags: HW
LayerCount: 2
Fore
SplineSet
-88 1249 m 1
 -704 -215 l 1
 -870 -215 l 1
 -184 1413 l 1
 -18 1413 l 1
 848 545 l 1
 176 -16 l 1
 68 94 l 1
 607 538 l 1
 -88 1249 l 1
EndSplineSet
PickledDataWithLists: "(dp0
Vcom.schriftgestaltung.Glyphs.lastChange
p1
V2019/11/18 23:05:38
p2
s."
EndChar

StartChar: slash_slash.liga
Encoding: 126 -1 126
GlifName: slash_slash.liga
Width: 1126
Flags: HW
LayerCount: 2
Fore
SplineSet
826 1413 m 1
 140 -215 l 1
 -26 -215 l 1
 660 1413 l 1
 826 1413 l 1
-18 1413 m 1
 -704 -215 l 1
 -870 -215 l 1
 -184 1413 l 1
 -18 1413 l 1
EndSplineSet
PickledDataWithLists: "(dp0
Vcom.schriftgestaltung.Glyphs.lastChange
p1
V2019/11/18 23:05:38
p2
s."
EndChar

StartChar: slash_slash_slash.liga
Encoding: 127 -1 127
GlifName: slash_slash_slash.liga
Width: 1126
Flags: W
LayerCount: 2
Fore
SplineSet
685 1413 m 1
 -1 -215 l 1
 -167 -215 l 1
 519 1413 l 1
 685 1413 l 1
-1003 1413 m 1
 -1689 -215 l 1
 -1855 -215 l 1
 -1169 1413 l 1
 -1003 1413 l 1
-159 1413 m 1
 -845 -215 l 1
 -1011 -215 l 1
 -325 1413 l 1
 -159 1413 l 1
EndSplineSet
PickledDataWithLists: "(dp0
Vcom.schriftgestaltung.Glyphs.lastChange
p1
V2019/11/18 23:05:38
p2
s."
EndChar

StartChar: tilde_tilde_greater.liga
Encoding: 128 -1 128
GlifName: tilde_tilde_greater.liga
Width: 1126
Flags: W
HStem: 343 158<-1195.45 -976.873 -210.422 22.3965> 477 165<158.512 361> 595 158<-1698.43 -1470.55 -704.205 -487.385>
VStem: -1903 159<401 546.281>
LayerCount: 2
Fore
SplineSet
-1903 401 m 1xb0
 -1903 615 -1794 753 -1579 753 c 0
 -1364 753 -1293 592 -1153 519 c 0
 -1130 507 -1113 501 -1087 501 c 0
 -1030 501 -987 536 -951 566 c 0
 -877 627 -808 700 -708 735 c 0
 -674 747 -641 753 -599 753 c 0xb0
 -423 753 -336 646 -239 566 c 0
 -201 535 -159 502 -97 502 c 0
 -40 502 6 538 46 559 c 0
 125 601 181 634 281 642 c 1
 288 642 l 2
 304 642 331 639 361 635 c 1
 -74 996 l 1
 35 1106 l 1
 707 545 l 1
 35 -16 l 1
 -74 95 l 1
 381 469 l 1
 348 472 308 477 279 477 c 0x50
 271 477 265 477 259 476 c 0
 163 463 73 343 -100 343 c 0
 -315 343 -390 504 -530 577 c 0
 -553 589 -570 595 -596 595 c 0
 -652 595 -694 559 -730 530 c 0
 -825 451 -914 343 -1087 343 c 0
 -1302 343 -1373 504 -1513 577 c 0
 -1536 589 -1560 595 -1586 595 c 0
 -1634 595 -1680 580 -1701 549 c 0
 -1722 518 -1744 469 -1744 401 c 1
 -1903 401 l 1xb0
EndSplineSet
PickledDataWithLists: "(dp0
Vcom.schriftgestaltung.Glyphs.lastChange
p1
V2019/11/18 23:07:02
p2
s."
EndChar

StartChar: underscore_bar_underscore.liga
Encoding: 129 -1 129
GlifName: underscore_bar_underscore.liga
Width: 1126
Flags: W
HStem: -410 144<-1970 -645 -481 844>
VStem: -645 164<-266 1638>
LayerCount: 2
Fore
SplineSet
-481 -266 m 1
 844 -266 l 1
 844 -410 l 1
 -1970 -410 l 1
 -1970 -266 l 1
 -645 -266 l 1
 -645 1638 l 1
 -481 1638 l 1
 -481 -266 l 1
EndSplineSet
PickledDataWithLists: "(dp0
Vcom.schriftgestaltung.Glyphs.lastChange
p1
V2019/11/18 23:05:38
p2
s."
EndChar

StartChar: underscore_underscore.liga
Encoding: 130 -1 130
GlifName: underscore_underscore.liga
Width: 1126
Flags: W
HStem: -410 144<-985 985>
LayerCount: 2
Fore
SplineSet
-985 -266 m 1
 985 -266 l 1
 985 -410 l 1
 -985 -410 l 1
 -985 -266 l 1
EndSplineSet
PickledDataWithLists: "(dp0
Vcom.schriftgestaltung.Glyphs.lastChange
p1
V2019/11/18 23:05:38
p2
s."
EndChar

StartChar: w_w_w.liga
Encoding: 131 -1 131
GlifName: w_w_w.liga
Width: 1126
Flags: W
HStem: 0 21G<-1861.38 -1604 -1239.97 -1000.35 -946.902 -710.5 -399.905 -179.13 -132.565 125 489.032 728.347>
VStem: -208 172<616.575 1004> 656 159<1094.08 1307>
LayerCount: 2
Fore
SplineSet
815 1307 m 1
 727 0 l 1
 496 0 l 1
 334 465 l 1
 289 614 l 1
 230 403 158 204 92 0 c 1
 -131 0 l 1
 -149 230 l 1
 -182 0 l 1
 -393 0 l 1
 -538 420 l 1
 -567 522 l 1
 -620 344 -682 174 -739 0 c 1
 -944 0 l 1
 -981 255 l 1
 -1002 0 l 1
 -1233 0 l 1
 -1395 465 l 1
 -1440 614 l 1
 -1499 403 -1571 204 -1637 0 c 1
 -1860 0 l 1
 -1950 1307 l 1
 -1782 1307 l 1
 -1731 418 l 1
 -1716 174 l 1
 -1647 409 -1569 636 -1495 866 c 1
 -1372 866 l 1
 -1291 635 -1211 404 -1129 174 c 1
 -1125 354 l 1
 -1089 1004 l 1
 -919 1004 l 1
 -885 726 -850 449 -817 170 c 1
 -754 365 -691 559 -628 754 c 1
 -503 754 l 1
 -436 561 -366 371 -301 176 c 1
 -272 454 -239 728 -208 1004 c 1
 -36 1004 l 1
 -20 727 -4 450 13 174 c 1
 82 409 160 636 234 866 c 1
 357 866 l 1
 438 635 518 404 600 174 c 1
 604 354 l 1
 656 1307 l 1
 815 1307 l 1
EndSplineSet
PickledDataWithLists: "(dp0
Vcom.schriftgestaltung.Glyphs.glyph.rightMetricsKey
p1
Vw
p2
sVcom.schriftgestaltung.Glyphs.lastChange
p3
V2019/11/18 23:05:38
p4
s."
EndChar

StartChar: zero.dnom
Encoding: 132 -1 132
GlifName: zero.dnom
Width: 1126
Flags: WO
HStem: -16 139<448.72 672.536> 659 140<453.066 677.28>
VStem: 205 178<190.103 584.855> 743 178<197.647 592.003>
LayerCount: 2
Fore
SplineSet
573 799 m 4
 811 799 921 641 921 397 c 4
 921 149 799 -16 553 -16 c 4
 315 -16 205 141 205 385 c 4
 205 634 326 799 573 799 c 4
383 391 m 4
 383 241 420 123 563 123 c 4
 699 123 743 250 743 391 c 4
 743 541 706 659 563 659 c 4
 426 659 383 533 383 391 c 4
EndSplineSet
EndChar

StartChar: one.dnom
Encoding: 133 -1 133
GlifName: one.dnom
Width: 1126
Flags: W
HStem: 0 145<266 504 678 879>
VStem: 504 174<145 612>
LayerCount: 2
Fore
SplineSet
879 0 m 1
 266 0 l 1
 266 145 l 1
 504 145 l 1
 504 612 l 1
 285 504 l 1
 227 635 l 1
 539 791 l 1
 678 791 l 1
 678 145 l 1
 879 145 l 1
 879 0 l 1
EndSplineSet
EndChar

StartChar: two.dnom
Encoding: 134 -1 134
GlifName: two.dnom
Width: 1126
Flags: W
HStem: 0 154<498 883> 649 150<370.205 631.26>
VStem: 651 185<437.519 627.319>
LayerCount: 2
Fore
SplineSet
252 686 m 1
 317 751 416 799 539 799 c 0
 672 799 768 749 813 660 c 0
 828 630 836 595 836 555 c 0
 836 439 775 370 709 312 c 0
 681 287 649 262 612 236 c 2
 498 154 l 1
 883 154 l 1
 883 0 l 1
 246 0 l 1
 246 143 l 1
 463 311 l 2
 525 359 573 395 615 446 c 0
 639 475 651 498 651 543 c 0
 651 614 595 649 518 649 c 0
 442 649 381 618 338 580 c 1
 252 686 l 1
EndSplineSet
EndChar

StartChar: three.dnom
Encoding: 135 -1 135
GlifName: three.dnom
Width: 1126
Flags: W
HStem: -16 140<276.549 647.937> 338 129<393 617.186> 659 140<293.945 628.173>
VStem: 641 180<493.316 642.238> 678 184<159.736 310.433>
LayerCount: 2
Fore
SplineSet
696 418 m 1xf0
 786 394 862 350 862 238 c 0
 862 99 759 32 642 2 c 0
 593 -10 537 -16 473 -16 c 0
 403 -16 330 -14 274 0 c 1
 274 140 l 1
 326 128 410 124 479 124 c 0
 574 124 678 149 678 233 c 0xe8
 678 326 574 338 475 338 c 2
 393 338 l 1
 393 467 l 1
 469 467 l 2
 559 467 641 488 641 573 c 0
 641 644 574 659 500 659 c 0
 427 659 348 645 291 627 c 1
 291 768 l 1
 359 788 446 799 532 799 c 0
 694 799 821 747 821 604 c 0
 821 503 769 450 696 418 c 1xf0
EndSplineSet
EndChar

StartChar: four.dnom
Encoding: 136 -1 136
GlifName: four.dnom
Width: 1126
Flags: W
HStem: 0 21G<623 784> 145 150<385 623 784 920>
VStem: 627 157<0 145 295 643>
LayerCount: 2
Fore
SplineSet
920 145 m 1
 784 145 l 1
 784 0 l 1
 623 0 l 1
 623 145 l 1
 211 145 l 1
 211 289 l 1
 555 782 l 1
 784 782 l 1
 784 295 l 1
 920 295 l 1
 920 145 l 1
627 643 m 1
 385 295 l 1
 627 295 l 1
 627 643 l 1
EndSplineSet
EndChar

StartChar: five.dnom
Encoding: 137 -1 137
GlifName: five.dnom
Width: 1126
Flags: W
HStem: -16 141<295.794 657.453> 342 135<465 666.031> 629 153<465 823>
VStem: 309 156<477 629> 688 178<157.498 319.279>
LayerCount: 2
Fore
SplineSet
535 477 m 2
 723 477 866 437 866 248 c 0
 866 51 678 -16 479 -16 c 0
 419 -16 351 -7 293 2 c 1
 293 147 l 1
 354 136 418 125 487 125 c 0
 594 125 688 149 688 240 c 0
 688 339 586 342 483 342 c 2
 309 342 l 1
 309 782 l 1
 823 782 l 1
 823 629 l 1
 465 629 l 1
 465 477 l 1
 535 477 l 2
EndSplineSet
EndChar

StartChar: six.dnom
Encoding: 138 -1 138
GlifName: six.dnom
Width: 1126
Flags: W
HStem: -16 141<456.268 686.587> 350 137<425.861 691.384> 641 141<489.016 807>
VStem: 238 186<159.823 338.379 463 573.056> 713 174<153.783 325.274>
LayerCount: 2
Fore
SplineSet
590 487 m 0
 770 487 887 416 887 246 c 0
 887 66 740 -16 559 -16 c 0
 339 -16 238 107 238 334 c 0
 238 639 381 782 690 782 c 2
 807 782 l 1
 807 641 l 1
 678 641 l 2
 531 641 437 603 424 473 c 1
 424 463 l 1
 464 476 534 487 590 487 c 0
569 125 m 0
 649 125 713 165 713 240 c 0
 713 317 653 350 567 350 c 0
 512 350 459 338 418 324 c 1
 418 197 452 125 569 125 c 0
EndSplineSet
EndChar

StartChar: seven.dnom
Encoding: 139 -1 139
GlifName: seven.dnom
Width: 1126
Flags: W
HStem: 0 21G<330 530.601> 629 153<256 672>
VStem: 256 608<649 782>
LayerCount: 2
Fore
SplineSet
864 649 m 1
 520 0 l 1
 330 0 l 1
 672 629 l 1
 256 629 l 1
 256 782 l 1
 864 782 l 1
 864 649 l 1
EndSplineSet
EndChar

StartChar: eight.dnom
Encoding: 140 -1 140
GlifName: eight.dnom
Width: 1126
Flags: W
HStem: -16 129<431.129 698.588> 672 127<433.163 692.398>
VStem: 252 164<134.029 287.803 532.917 653.126> 711 163<131.201 276.131 523.84 650.082>
LayerCount: 2
Fore
SplineSet
717 414 m 1
 800 377 874 325 874 207 c 0
 874 42 725 -16 559 -16 c 0
 389 -16 252 36 252 190 c 0
 252 303 335 357 412 395 c 1
 338 431 266 479 266 588 c 0
 266 742 409 799 567 799 c 0
 725 799 860 748 860 604 c 0
 860 505 788 450 717 414 c 1
582 473 m 1
 637 496 700 530 700 598 c 0
 700 647 654 672 563 672 c 0
 494 672 426 658 426 598 c 0
 426 543 479 517 520 498 c 0
 539 489 559 481 582 473 c 1
563 113 m 0
 637 113 711 129 711 201 c 0
 711 283 604 309 543 332 c 1
 487 308 416 278 416 201 c 0
 416 132 487 113 563 113 c 0
EndSplineSet
EndChar

StartChar: nine.dnom
Encoding: 141 -1 141
GlifName: nine.dnom
Width: 1126
Flags: W
HStem: 0 143<291 632.699> 295 141<428.597 696.496> 657 142<432.77 660.21>
VStem: 233 175<459.477 628.945> 702 181<446.74 611.651>
LayerCount: 2
Fore
SplineSet
559 799 m 256
 790 799 883 675 883 440 c 0
 883 197 787 53 589 16 c 0
 533 6 475 0 416 0 c 2
 291 0 l 1
 291 143 l 1
 436 143 l 2
 588 143 680 176 696 309 c 1
 698 317 l 1
 652 302 590 295 530 295 c 0
 354 295 233 359 233 537 c 0
 233 673 322 749 428 781 c 0
 468 793 512 799 559 799 c 256
702 463 m 1
 702 579 667 657 551 657 c 0
 470 657 408 618 408 543 c 0
 408 461 472 436 555 436 c 0
 605 436 669 443 702 463 c 1
EndSplineSet
EndChar

StartChar: zero.numr
Encoding: 142 -1 142
GlifName: zero.numr
Width: 1126
Flags: WO
HStem: 615 139<448.72 672.536> 1290 140<453.066 677.28>
VStem: 205 178<821.103 1215.85> 743 178<828.647 1223>
LayerCount: 2
Fore
SplineSet
573 1430 m 0
 811 1430 921 1272 921 1028 c 0
 921 780 799 615 553 615 c 0
 315 615 205 772 205 1016 c 0
 205 1265 326 1430 573 1430 c 0
383 1022 m 0
 383 872 420 754 563 754 c 0
 699 754 743 881 743 1022 c 0
 743 1172 706 1290 563 1290 c 0
 426 1290 383 1164 383 1022 c 0
EndSplineSet
EndChar

StartChar: one.numr
Encoding: 143 -1 143
GlifName: one.numr
Width: 1126
Flags: W
HStem: 631 145<266 504 678 879>
VStem: 504 174<776 1243>
LayerCount: 2
Fore
SplineSet
879 631 m 1
 266 631 l 1
 266 776 l 1
 504 776 l 1
 504 1243 l 1
 285 1135 l 1
 227 1266 l 1
 539 1422 l 1
 678 1422 l 1
 678 776 l 1
 879 776 l 1
 879 631 l 1
EndSplineSet
EndChar

StartChar: two.numr
Encoding: 144 -1 144
GlifName: two.numr
Width: 1126
Flags: W
HStem: 631 154<498 883> 1280 150<370.205 631.26>
VStem: 651 185<1066.05 1257.89>
LayerCount: 2
Fore
SplineSet
252 1317 m 1
 317 1382 416 1430 539 1430 c 0
 672 1430 768 1381 813 1292 c 0
 828 1262 836 1226 836 1186 c 0
 836 1070 775 1001 709 943 c 0
 681 918 649 893 612 867 c 2
 498 785 l 1
 883 785 l 1
 883 631 l 1
 246 631 l 1
 246 774 l 1
 463 942 l 2
 525 990 573 1025 615 1076 c 0
 639 1105 651 1129 651 1174 c 0
 651 1245 595 1280 518 1280 c 0
 442 1280 381 1249 338 1211 c 1
 252 1317 l 1
EndSplineSet
EndChar

StartChar: three.numr
Encoding: 145 -1 145
GlifName: three.numr
Width: 1126
Flags: W
HStem: 615 140<276.549 647.937> 969 129<393 617.186> 1290 140<293.945 628.173>
VStem: 641 180<1124.32 1273.24> 678 184<788.215 941.433>
LayerCount: 2
Fore
SplineSet
696 1049 m 1xf0
 786 1025 862 981 862 869 c 0
 862 730 759 664 642 634 c 0
 593 622 537 615 473 615 c 0
 403 615 330 617 274 631 c 1
 274 771 l 1
 326 759 410 755 479 755 c 0
 574 755 678 780 678 864 c 0xe8
 678 957 574 969 475 969 c 2
 393 969 l 1
 393 1098 l 1
 469 1098 l 2
 559 1098 641 1119 641 1204 c 0
 641 1275 574 1290 500 1290 c 0
 427 1290 348 1276 291 1258 c 1
 291 1399 l 1
 359 1419 446 1430 532 1430 c 0
 694 1430 821 1378 821 1235 c 0
 821 1134 769 1081 696 1049 c 1xf0
EndSplineSet
EndChar

StartChar: four.numr
Encoding: 146 -1 146
GlifName: four.numr
Width: 1126
Flags: W
HStem: 776 150<385 623 784 920>
VStem: 627 157<631 776 926 1274>
LayerCount: 2
Fore
SplineSet
920 776 m 1
 784 776 l 1
 784 631 l 1
 623 631 l 1
 623 776 l 1
 211 776 l 1
 211 920 l 1
 555 1413 l 1
 784 1413 l 1
 784 926 l 1
 920 926 l 1
 920 776 l 1
627 1274 m 1
 385 926 l 1
 627 926 l 1
 627 1274 l 1
EndSplineSet
EndChar

StartChar: five.numr
Encoding: 147 -1 147
GlifName: five.numr
Width: 1126
Flags: W
HStem: 615 141<295.794 657.453> 973 135<465 666.031> 1260 153<465 823>
VStem: 309 156<1108 1260> 688 178<788.498 950.279>
LayerCount: 2
Fore
SplineSet
535 1108 m 2
 723 1108 866 1068 866 879 c 0
 866 682 678 615 479 615 c 0
 419 615 351 624 293 633 c 1
 293 778 l 1
 354 767 418 756 487 756 c 0
 594 756 688 780 688 871 c 0
 688 970 586 973 483 973 c 2
 309 973 l 1
 309 1413 l 1
 823 1413 l 1
 823 1260 l 1
 465 1260 l 1
 465 1108 l 1
 535 1108 l 2
EndSplineSet
EndChar

StartChar: six.numr
Encoding: 148 -1 148
GlifName: six.numr
Width: 1126
Flags: W
HStem: 615 141<456.268 686.587> 981 137<425.861 691.384> 1272 141<489.016 807>
VStem: 238 186<790.823 969.379 1094 1204.06> 713 174<784.783 956.274>
LayerCount: 2
Fore
SplineSet
590 1118 m 0
 770 1118 887 1047 887 877 c 0
 887 697 740 615 559 615 c 0
 339 615 238 738 238 965 c 0
 238 1270 381 1413 690 1413 c 2
 807 1413 l 1
 807 1272 l 1
 678 1272 l 2
 531 1272 437 1234 424 1104 c 1
 424 1094 l 1
 464 1107 534 1118 590 1118 c 0
569 756 m 0
 649 756 713 796 713 871 c 0
 713 948 653 981 567 981 c 0
 512 981 459 969 418 955 c 1
 418 828 452 756 569 756 c 0
EndSplineSet
EndChar

StartChar: seven.numr
Encoding: 149 -1 149
GlifName: seven.numr
Width: 1126
Flags: W
HStem: 1260 153<256 672>
VStem: 256 608<1280 1413>
LayerCount: 2
Fore
SplineSet
864 1280 m 1
 520 631 l 1
 330 631 l 1
 672 1260 l 1
 256 1260 l 1
 256 1413 l 1
 864 1413 l 1
 864 1280 l 1
EndSplineSet
EndChar

StartChar: eight.numr
Encoding: 150 -1 150
GlifName: eight.numr
Width: 1126
Flags: W
HStem: 615 129<431.129 698.588> 1303 127<433.163 692.398>
VStem: 252 164<765.029 918.803 1163.92 1284.13> 711 163<762.201 907.131 1154.84 1281.08>
LayerCount: 2
Fore
SplineSet
717 1045 m 1
 800 1008 874 956 874 838 c 0
 874 673 725 615 559 615 c 0
 389 615 252 667 252 821 c 0
 252 934 335 988 412 1026 c 1
 338 1062 266 1110 266 1219 c 0
 266 1373 409 1430 567 1430 c 0
 725 1430 860 1379 860 1235 c 0
 860 1136 788 1081 717 1045 c 1
582 1104 m 1
 637 1127 700 1161 700 1229 c 0
 700 1278 654 1303 563 1303 c 0
 494 1303 426 1289 426 1229 c 0
 426 1174 479 1148 520 1129 c 0
 539 1120 559 1112 582 1104 c 1
563 744 m 0
 637 744 711 760 711 832 c 0
 711 914 604 940 543 963 c 1
 487 939 416 909 416 832 c 0
 416 763 487 744 563 744 c 0
EndSplineSet
EndChar

StartChar: nine.numr
Encoding: 151 -1 151
GlifName: nine.numr
Width: 1126
Flags: WO
HStem: 631 143<291 632.699> 926 141<428.597 696.496> 1288 142<432.77 660.21>
VStem: 233 175<1090.48 1259.95> 702 181<1077.74 1242.65>
LayerCount: 2
Fore
SplineSet
559 1430 m 256
 790 1430 883 1306 883 1071 c 0
 883 828 787 683 589 646 c 0
 533 636 475 631 416 631 c 2
 291 631 l 1
 291 774 l 1
 436 774 l 2
 588 774 680 807 696 940 c 1
 698 948 l 1
 652 933 590 926 530 926 c 0
 354 926 233 990 233 1168 c 0
 233 1304 322 1380 428 1412 c 0
 468 1424 512 1430 559 1430 c 256
702 1094 m 1
 702 1210 667 1288 551 1288 c 0
 470 1288 408 1249 408 1174 c 0
 408 1092 472 1067 555 1067 c 0
 605 1067 669 1074 702 1094 c 1
EndSplineSet
EndChar

StartChar: zeroinferior
Encoding: 152 -1 152
GlifName: zeroinferior
Width: 1126
Flags: W
HStem: -16 139<448.72 672.536> 659 140<453.066 677.28>
VStem: 205 178<190.103 584.855> 743 178<197.647 592.003>
LayerCount: 2
Fore
SplineSet
573 799 m 0
 811 799 921 641 921 397 c 0
 921 149 799 -16 553 -16 c 0
 315 -16 205 141 205 385 c 0
 205 634 326 799 573 799 c 0
383 391 m 0
 383 241 420 123 563 123 c 0
 699 123 743 250 743 391 c 0
 743 541 706 659 563 659 c 0
 426 659 383 533 383 391 c 0
EndSplineSet
EndChar

StartChar: oneinferior
Encoding: 153 -1 153
GlifName: oneinferior
Width: 1126
Flags: W
HStem: 0 145<266 504 678 879>
VStem: 504 174<145 612>
LayerCount: 2
Fore
SplineSet
879 0 m 1
 266 0 l 1
 266 145 l 1
 504 145 l 1
 504 612 l 1
 285 504 l 1
 227 635 l 1
 539 791 l 1
 678 791 l 1
 678 145 l 1
 879 145 l 1
 879 0 l 1
EndSplineSet
EndChar

StartChar: twoinferior
Encoding: 154 -1 154
GlifName: twoinferior
Width: 1126
Flags: W
HStem: 0 154<498 883> 649 150<370.205 631.26>
VStem: 651 185<437.519 627.319>
LayerCount: 2
Fore
SplineSet
252 686 m 1
 317 751 416 799 539 799 c 0
 672 799 768 749 813 660 c 0
 828 630 836 595 836 555 c 0
 836 439 775 370 709 312 c 0
 681 287 649 262 612 236 c 2
 498 154 l 1
 883 154 l 1
 883 0 l 1
 246 0 l 1
 246 143 l 1
 463 311 l 2
 525 359 573 395 615 446 c 0
 639 475 651 498 651 543 c 0
 651 614 595 649 518 649 c 0
 442 649 381 618 338 580 c 1
 252 686 l 1
EndSplineSet
EndChar

StartChar: threeinferior
Encoding: 155 -1 155
GlifName: threeinferior
Width: 1126
Flags: W
HStem: -16 140<276.549 647.937> 338 129<393 617.186> 659 140<293.945 628.173>
VStem: 641 180<493.316 642.238> 678 184<159.736 310.433>
LayerCount: 2
Fore
SplineSet
696 418 m 1xf0
 786 394 862 350 862 238 c 0
 862 99 759 32 642 2 c 0
 593 -10 537 -16 473 -16 c 0
 403 -16 330 -14 274 0 c 1
 274 140 l 1
 326 128 410 124 479 124 c 0
 574 124 678 149 678 233 c 0xe8
 678 326 574 338 475 338 c 2
 393 338 l 1
 393 467 l 1
 469 467 l 2
 559 467 641 488 641 573 c 0
 641 644 574 659 500 659 c 0
 427 659 348 645 291 627 c 1
 291 768 l 1
 359 788 446 799 532 799 c 0
 694 799 821 747 821 604 c 0
 821 503 769 450 696 418 c 1xf0
EndSplineSet
EndChar

StartChar: fourinferior
Encoding: 156 -1 156
GlifName: fourinferior
Width: 1126
Flags: W
HStem: 0 21G<623 784> 145 150<385 623 784 920>
VStem: 627 157<0 145 295 643>
LayerCount: 2
Fore
SplineSet
920 145 m 1
 784 145 l 1
 784 0 l 1
 623 0 l 1
 623 145 l 1
 211 145 l 1
 211 289 l 1
 555 782 l 1
 784 782 l 1
 784 295 l 1
 920 295 l 1
 920 145 l 1
627 643 m 1
 385 295 l 1
 627 295 l 1
 627 643 l 1
EndSplineSet
EndChar

StartChar: fiveinferior
Encoding: 157 -1 157
GlifName: fiveinferior
Width: 1126
Flags: W
HStem: -16 141<295.794 657.453> 342 135<465 666.031> 629 153<465 823>
VStem: 309 156<477 629> 688 178<157.498 319.279>
LayerCount: 2
Fore
SplineSet
535 477 m 2
 723 477 866 437 866 248 c 0
 866 51 678 -16 479 -16 c 0
 419 -16 351 -7 293 2 c 1
 293 147 l 1
 354 136 418 125 487 125 c 0
 594 125 688 149 688 240 c 0
 688 339 586 342 483 342 c 2
 309 342 l 1
 309 782 l 1
 823 782 l 1
 823 629 l 1
 465 629 l 1
 465 477 l 1
 535 477 l 2
EndSplineSet
EndChar

StartChar: sixinferior
Encoding: 158 -1 158
GlifName: sixinferior
Width: 1126
Flags: W
HStem: -16 141<456.268 686.587> 350 137<425.861 691.384> 641 141<489.016 807>
VStem: 238 186<159.823 338.379 463 573.056> 713 174<153.783 325.274>
LayerCount: 2
Fore
SplineSet
590 487 m 0
 770 487 887 416 887 246 c 0
 887 66 740 -16 559 -16 c 0
 339 -16 238 107 238 334 c 0
 238 639 381 782 690 782 c 2
 807 782 l 1
 807 641 l 1
 678 641 l 2
 531 641 437 603 424 473 c 1
 424 463 l 1
 464 476 534 487 590 487 c 0
569 125 m 0
 649 125 713 165 713 240 c 0
 713 317 653 350 567 350 c 0
 512 350 459 338 418 324 c 1
 418 197 452 125 569 125 c 0
EndSplineSet
EndChar

StartChar: seveninferior
Encoding: 159 -1 159
GlifName: seveninferior
Width: 1126
Flags: W
HStem: 0 21G<330 530.601> 629 153<256 672>
VStem: 256 608<649 782>
LayerCount: 2
Fore
SplineSet
864 649 m 1
 520 0 l 1
 330 0 l 1
 672 629 l 1
 256 629 l 1
 256 782 l 1
 864 782 l 1
 864 649 l 1
EndSplineSet
EndChar

StartChar: eightinferior
Encoding: 160 -1 160
GlifName: eightinferior
Width: 1126
Flags: W
HStem: -16 129<431.129 698.588> 672 127<433.163 692.398>
VStem: 252 164<134.029 287.803 532.917 653.126> 711 163<131.201 276.131 523.84 650.082>
LayerCount: 2
Fore
SplineSet
717 414 m 1
 800 377 874 325 874 207 c 0
 874 42 725 -16 559 -16 c 0
 389 -16 252 36 252 190 c 0
 252 303 335 357 412 395 c 1
 338 431 266 479 266 588 c 0
 266 742 409 799 567 799 c 0
 725 799 860 748 860 604 c 0
 860 505 788 450 717 414 c 1
582 473 m 1
 637 496 700 530 700 598 c 0
 700 647 654 672 563 672 c 0
 494 672 426 658 426 598 c 0
 426 543 479 517 520 498 c 0
 539 489 559 481 582 473 c 1
563 113 m 0
 637 113 711 129 711 201 c 0
 711 283 604 309 543 332 c 1
 487 308 416 278 416 201 c 0
 416 132 487 113 563 113 c 0
EndSplineSet
EndChar

StartChar: nineinferior
Encoding: 161 -1 161
GlifName: nineinferior
Width: 1126
Flags: W
HStem: 0 143<291 632.699> 295 141<428.597 696.496> 657 142<432.77 660.21>
VStem: 233 175<459.477 628.945> 702 181<446.74 611.651>
LayerCount: 2
Fore
SplineSet
559 799 m 256
 790 799 883 675 883 440 c 0
 883 197 787 53 589 16 c 0
 533 6 475 0 416 0 c 2
 291 0 l 1
 291 143 l 1
 436 143 l 2
 588 143 680 176 696 309 c 1
 698 317 l 1
 652 302 590 295 530 295 c 0
 354 295 233 359 233 537 c 0
 233 673 322 749 428 781 c 0
 468 793 512 799 559 799 c 256
702 463 m 1
 702 579 667 657 551 657 c 0
 470 657 408 618 408 543 c 0
 408 461 472 436 555 436 c 0
 605 436 669 443 702 463 c 1
EndSplineSet
EndChar

StartChar: zerosuperior
Encoding: 162 -1 162
GlifName: zerosuperior
Width: 1126
Flags: W
HStem: 615 139<448.72 672.536> 1290 140<453.066 677.28>
VStem: 205 178<821.103 1215.85> 743 178<828.647 1223>
LayerCount: 2
Fore
SplineSet
573 1430 m 0
 811 1430 921 1272 921 1028 c 0
 921 780 799 615 553 615 c 0
 315 615 205 772 205 1016 c 0
 205 1265 326 1430 573 1430 c 0
383 1022 m 0
 383 872 420 754 563 754 c 0
 699 754 743 881 743 1022 c 0
 743 1172 706 1290 563 1290 c 0
 426 1290 383 1164 383 1022 c 0
EndSplineSet
EndChar

StartChar: onesuperior
Encoding: 163 -1 163
GlifName: onesuperior
Width: 1126
Flags: W
HStem: 631 145<266 504 678 879>
VStem: 504 174<776 1243>
LayerCount: 2
Fore
SplineSet
879 631 m 1
 266 631 l 1
 266 776 l 1
 504 776 l 1
 504 1243 l 1
 285 1135 l 1
 227 1266 l 1
 539 1422 l 1
 678 1422 l 1
 678 776 l 1
 879 776 l 1
 879 631 l 1
EndSplineSet
EndChar

StartChar: twosuperior
Encoding: 164 -1 164
GlifName: twosuperior
Width: 1126
Flags: W
HStem: 631 154<498 883> 1280 150<370.205 631.26>
VStem: 651 185<1066.05 1257.89>
LayerCount: 2
Fore
SplineSet
252 1317 m 1
 317 1382 416 1430 539 1430 c 0
 672 1430 768 1381 813 1292 c 0
 828 1262 836 1226 836 1186 c 0
 836 1070 775 1001 709 943 c 0
 681 918 649 893 612 867 c 2
 498 785 l 1
 883 785 l 1
 883 631 l 1
 246 631 l 1
 246 774 l 1
 463 942 l 2
 525 990 573 1025 615 1076 c 0
 639 1105 651 1129 651 1174 c 0
 651 1245 595 1280 518 1280 c 0
 442 1280 381 1249 338 1211 c 1
 252 1317 l 1
EndSplineSet
EndChar

StartChar: threesuperior
Encoding: 165 -1 165
GlifName: threesuperior
Width: 1126
Flags: W
HStem: 615 140<276.549 647.937> 969 129<393 617.186> 1290 140<293.945 628.173>
VStem: 641 180<1124.32 1273.24> 678 184<788.215 941.433>
LayerCount: 2
Fore
SplineSet
696 1049 m 1xf0
 786 1025 862 981 862 869 c 0
 862 730 759 664 642 634 c 0
 593 622 537 615 473 615 c 0
 403 615 330 617 274 631 c 1
 274 771 l 1
 326 759 410 755 479 755 c 0
 574 755 678 780 678 864 c 0xe8
 678 957 574 969 475 969 c 2
 393 969 l 1
 393 1098 l 1
 469 1098 l 2
 559 1098 641 1119 641 1204 c 0
 641 1275 574 1290 500 1290 c 0
 427 1290 348 1276 291 1258 c 1
 291 1399 l 1
 359 1419 446 1430 532 1430 c 0
 694 1430 821 1378 821 1235 c 0
 821 1134 769 1081 696 1049 c 1xf0
EndSplineSet
EndChar

StartChar: foursuperior
Encoding: 166 -1 166
GlifName: foursuperior
Width: 1126
Flags: W
HStem: 776 150<385 623 784 920>
VStem: 627 157<631 776 926 1274>
LayerCount: 2
Fore
SplineSet
920 776 m 1
 784 776 l 1
 784 631 l 1
 623 631 l 1
 623 776 l 1
 211 776 l 1
 211 920 l 1
 555 1413 l 1
 784 1413 l 1
 784 926 l 1
 920 926 l 1
 920 776 l 1
627 1274 m 1
 385 926 l 1
 627 926 l 1
 627 1274 l 1
EndSplineSet
EndChar

StartChar: fivesuperior
Encoding: 167 -1 167
GlifName: fivesuperior
Width: 1126
Flags: W
HStem: 615 141<295.794 657.453> 973 135<465 666.031> 1260 153<465 823>
VStem: 309 156<1108 1260> 688 178<788.498 950.279>
LayerCount: 2
Fore
SplineSet
535 1108 m 2
 723 1108 866 1068 866 879 c 0
 866 682 678 615 479 615 c 0
 419 615 351 624 293 633 c 1
 293 778 l 1
 354 767 418 756 487 756 c 0
 594 756 688 780 688 871 c 0
 688 970 586 973 483 973 c 2
 309 973 l 1
 309 1413 l 1
 823 1413 l 1
 823 1260 l 1
 465 1260 l 1
 465 1108 l 1
 535 1108 l 2
EndSplineSet
EndChar

StartChar: sixsuperior
Encoding: 168 -1 168
GlifName: sixsuperior
Width: 1126
Flags: W
HStem: 615 141<456.268 686.587> 981 137<425.861 691.384> 1272 141<489.016 807>
VStem: 238 186<790.823 969.379 1094 1204.06> 713 174<784.783 956.274>
LayerCount: 2
Fore
SplineSet
590 1118 m 0
 770 1118 887 1047 887 877 c 0
 887 697 740 615 559 615 c 0
 339 615 238 738 238 965 c 0
 238 1270 381 1413 690 1413 c 2
 807 1413 l 1
 807 1272 l 1
 678 1272 l 2
 531 1272 437 1234 424 1104 c 1
 424 1094 l 1
 464 1107 534 1118 590 1118 c 0
569 756 m 0
 649 756 713 796 713 871 c 0
 713 948 653 981 567 981 c 0
 512 981 459 969 418 955 c 1
 418 828 452 756 569 756 c 0
EndSplineSet
EndChar

StartChar: sevensuperior
Encoding: 169 -1 169
GlifName: sevensuperior
Width: 1126
Flags: W
HStem: 1260 153<256 672>
VStem: 256 608<1280 1413>
LayerCount: 2
Fore
SplineSet
864 1280 m 1
 520 631 l 1
 330 631 l 1
 672 1260 l 1
 256 1260 l 1
 256 1413 l 1
 864 1413 l 1
 864 1280 l 1
EndSplineSet
EndChar

StartChar: eightsuperior
Encoding: 170 -1 170
GlifName: eightsuperior
Width: 1126
Flags: W
HStem: 615 129<431.129 698.588> 1303 127<433.163 692.398>
VStem: 252 164<765.029 918.803 1163.92 1284.13> 711 163<762.201 907.131 1154.84 1281.08>
LayerCount: 2
Fore
SplineSet
717 1045 m 1
 800 1008 874 956 874 838 c 0
 874 673 725 615 559 615 c 0
 389 615 252 667 252 821 c 0
 252 934 335 988 412 1026 c 1
 338 1062 266 1110 266 1219 c 0
 266 1373 409 1430 567 1430 c 0
 725 1430 860 1379 860 1235 c 0
 860 1136 788 1081 717 1045 c 1
582 1104 m 1
 637 1127 700 1161 700 1229 c 0
 700 1278 654 1303 563 1303 c 0
 494 1303 426 1289 426 1229 c 0
 426 1174 479 1148 520 1129 c 0
 539 1120 559 1112 582 1104 c 1
563 744 m 0
 637 744 711 760 711 832 c 0
 711 914 604 940 543 963 c 1
 487 939 416 909 416 832 c 0
 416 763 487 744 563 744 c 0
EndSplineSet
EndChar

StartChar: ninesuperior
Encoding: 171 -1 171
GlifName: ninesuperior
Width: 1126
Flags: W
HStem: 631 143<291 632.699> 926 141<428.597 696.496> 1288 142<432.77 660.21>
VStem: 233 175<1090.48 1259.95> 702 181<1077.74 1242.65>
LayerCount: 2
Fore
SplineSet
559 1430 m 256
 790 1430 883 1306 883 1071 c 0
 883 828 787 683 589 646 c 0
 533 636 475 631 416 631 c 2
 291 631 l 1
 291 774 l 1
 436 774 l 2
 588 774 680 807 696 940 c 1
 698 948 l 1
 652 933 590 926 530 926 c 0
 354 926 233 990 233 1168 c 0
 233 1304 322 1380 428 1412 c 0
 468 1424 512 1430 559 1430 c 256
702 1094 m 1
 702 1210 667 1288 551 1288 c 0
 470 1288 408 1249 408 1174 c 0
 408 1092 472 1067 555 1067 c 0
 605 1067 669 1074 702 1094 c 1
EndSplineSet
EndChar

StartChar: zero.zero
Encoding: 172 -1 172
GlifName: zero.zero
Width: 1126
Flags: W
HStem: -18 149<421.769 705.108> 535 251<467.82 658.517> 1176 149<424.081 704.417>
VStem: 88 176<342.789 964.4> 438 250<564.39 755.657> 862 176<341.243 963.692>
CounterMasks: 1 1c
LayerCount: 2
Fore
SplineSet
1038 653 m 0
 1038 360 955 131 765 30 c 0
 704 -2 634 -18 553 -18 c 0
 299 -18 176 142 121 352 c 0
 99 437 88 537 88 653 c 0
 88 945 172 1174 361 1276 c 0
 422 1309 492 1325 573 1325 c 0
 828 1325 950 1165 1005 954 c 0
 1027 869 1038 769 1038 653 c 0
862 647 m 0
 862 855 823 1040 706 1131 c 0
 668 1161 620 1176 563 1176 c 0
 457 1176 389 1117 345 1044 c 0
 289 950 264 816 264 659 c 0
 264 452 304 267 420 176 c 0
 458 146 506 131 563 131 c 0
 669 131 737 189 781 262 c 0
 837 356 862 490 862 647 c 0
438 659 m 0
 438 730 492 786 563 786 c 256
 635 786 688 731 688 659 c 0
 688 588 634 535 563 535 c 256
 492 535 438 589 438 659 c 0
EndSplineSet
EndChar

StartChar: x.multiply
Encoding: 173 -1 173
GlifName: x.multiply
Width: 1126
Flags: HW
LayerCount: 2
Fore
SplineSet
975 850 m 5
 674 549 l 5
 979 246 l 5
 862 129 l 5
 559 434 l 5
 258 133 l 5
 152 240 l 5
 453 541 l 5
 147 844 l 5
 264 961 l 5
 567 655 l 5
 868 956 l 5
 975 850 l 5
EndSplineSet
EndChar
